<svg width="272" height="248" viewBox="0 0 272 248" fill="none" xmlns="http://www.w3.org/2000/svg">
<circle cx="5.05199" cy="5.05199" r="5.05199" fill="white" fill-opacity="0.3"/>
<circle cx="5.05199" cy="28.8093" r="5.05199" fill="white" fill-opacity="0.3"/>
<circle cx="5.05199" cy="52.5662" r="5.05199" fill="white" fill-opacity="0.3"/>
<circle cx="5.05199" cy="76.323" r="5.05199" fill="white" fill-opacity="0.3"/>
<circle cx="5.05199" cy="100.08" r="5.05199" fill="white" fill-opacity="0.3"/>
<circle cx="5.05199" cy="123.837" r="5.05199" fill="white" fill-opacity="0.3"/>
<circle cx="5.05199" cy="147.594" r="5.05199" fill="white" fill-opacity="0.3"/>
<circle cx="5.05199" cy="171.352" r="5.05199" fill="white" fill-opacity="0.3"/>
<circle cx="5.05199" cy="195.108" r="5.05199" fill="white" fill-opacity="0.3"/>
<circle cx="5.05199" cy="218.865" r="5.05199" fill="white" fill-opacity="0.3"/>
<circle cx="5.05199" cy="242.622" r="5.05199" fill="white" fill-opacity="0.3"/>
<circle cx="100.08" cy="5.05199" r="5.05199" fill="white" fill-opacity="0.3"/>
<circle cx="100.08" cy="28.8093" r="5.05199" fill="white" fill-opacity="0.3"/>
<circle cx="100.08" cy="52.5662" r="5.05199" fill="white" fill-opacity="0.3"/>
<circle cx="100.08" cy="76.323" r="5.05199" fill="white" fill-opacity="0.3"/>
<circle cx="100.08" cy="100.08" r="5.05199" fill="white" fill-opacity="0.3"/>
<circle cx="100.08" cy="123.837" r="5.05199" fill="white" fill-opacity="0.3"/>
<circle cx="100.08" cy="147.594" r="5.05199" fill="white" fill-opacity="0.3"/>
<circle cx="100.08" cy="171.352" r="5.05199" fill="white" fill-opacity="0.3"/>
<circle cx="100.08" cy="195.108" r="5.05199" fill="white" fill-opacity="0.3"/>
<circle cx="100.08" cy="218.865" r="5.05199" fill="white" fill-opacity="0.3"/>
<circle cx="100.08" cy="242.622" r="5.05199" fill="white" fill-opacity="0.3"/>
<circle cx="195.109" cy="5.05199" r="5.05199" fill="white" fill-opacity="0.3"/>
<circle cx="195.109" cy="28.8093" r="5.05199" fill="white" fill-opacity="0.3"/>
<circle cx="195.109" cy="52.5662" r="5.05199" fill="white" fill-opacity="0.3"/>
<circle cx="195.109" cy="76.323" r="5.05199" fill="white" fill-opacity="0.3"/>
<circle cx="195.109" cy="100.08" r="5.05199" fill="white" fill-opacity="0.3"/>
<circle cx="195.109" cy="123.837" r="5.05199" fill="white" fill-opacity="0.3"/>
<circle cx="195.109" cy="147.594" r="5.05199" fill="white" fill-opacity="0.3"/>
<circle cx="195.109" cy="171.352" r="5.05199" fill="white" fill-opacity="0.3"/>
<circle cx="195.109" cy="195.108" r="5.05199" fill="white" fill-opacity="0.3"/>
<circle cx="195.109" cy="218.865" r="5.05199" fill="white" fill-opacity="0.3"/>
<circle cx="195.109" cy="242.622" r="5.05199" fill="white" fill-opacity="0.3"/>
<circle cx="52.5664" cy="5.05199" r="5.05199" fill="white" fill-opacity="0.3"/>
<circle cx="52.5664" cy="28.8093" r="5.05199" fill="white" fill-opacity="0.3"/>
<circle cx="52.5664" cy="52.5662" r="5.05199" fill="white" fill-opacity="0.3"/>
<circle cx="52.5664" cy="76.323" r="5.05199" fill="white" fill-opacity="0.3"/>
<circle cx="52.5664" cy="100.08" r="5.05199" fill="white" fill-opacity="0.3"/>
<circle cx="52.5664" cy="123.837" r="5.05199" fill="white" fill-opacity="0.3"/>
<circle cx="52.5664" cy="147.594" r="5.05199" fill="white" fill-opacity="0.3"/>
<circle cx="52.5664" cy="171.352" r="5.05199" fill="white" fill-opacity="0.3"/>
<circle cx="52.5664" cy="195.108" r="5.05199" fill="white" fill-opacity="0.3"/>
<circle cx="52.5664" cy="218.865" r="5.05199" fill="white" fill-opacity="0.3"/>
<circle cx="52.5664" cy="242.622" r="5.05199" fill="white" fill-opacity="0.3"/>
<circle cx="147.594" cy="5.05199" r="5.05199" fill="white" fill-opacity="0.3"/>
<circle cx="147.594" cy="28.8093" r="5.05199" fill="white" fill-opacity="0.3"/>
<circle cx="147.594" cy="52.5662" r="5.05199" fill="white" fill-opacity="0.3"/>
<circle cx="147.594" cy="76.323" r="5.05199" fill="white" fill-opacity="0.3"/>
<circle cx="147.594" cy="100.08" r="5.05199" fill="white" fill-opacity="0.3"/>
<circle cx="147.594" cy="123.837" r="5.05199" fill="white" fill-opacity="0.3"/>
<circle cx="147.594" cy="147.594" r="5.05199" fill="white" fill-opacity="0.3"/>
<circle cx="147.594" cy="171.352" r="5.05199" fill="white" fill-opacity="0.3"/>
<circle cx="147.594" cy="195.108" r="5.05199" fill="white" fill-opacity="0.3"/>
<circle cx="147.594" cy="218.865" r="5.05199" fill="white" fill-opacity="0.3"/>
<circle cx="147.594" cy="242.622" r="5.05199" fill="white" fill-opacity="0.3"/>
<circle cx="242.623" cy="5.05199" r="5.05199" fill="white" fill-opacity="0.3"/>
<circle cx="242.623" cy="28.8093" r="5.05199" fill="white" fill-opacity="0.3"/>
<circle cx="242.623" cy="52.5662" r="5.05199" fill="white" fill-opacity="0.3"/>
<circle cx="242.623" cy="76.323" r="5.05199" fill="white" fill-opacity="0.3"/>
<circle cx="242.623" cy="100.08" r="5.05199" fill="white" fill-opacity="0.3"/>
<circle cx="242.623" cy="123.837" r="5.05199" fill="white" fill-opacity="0.3"/>
<circle cx="242.623" cy="147.594" r="5.05199" fill="white" fill-opacity="0.3"/>
<circle cx="242.623" cy="171.352" r="5.05199" fill="white" fill-opacity="0.3"/>
<circle cx="242.623" cy="195.108" r="5.05199" fill="white" fill-opacity="0.3"/>
<circle cx="242.623" cy="218.865" r="5.05199" fill="white" fill-opacity="0.3"/>
<circle cx="242.623" cy="242.622" r="5.05199" fill="white" fill-opacity="0.3"/>
<circle cx="28.8086" cy="5.05199" r="5.05199" fill="white" fill-opacity="0.3"/>
<circle cx="28.8086" cy="28.8093" r="5.05199" fill="white" fill-opacity="0.3"/>
<circle cx="28.8086" cy="52.5662" r="5.05199" fill="white" fill-opacity="0.3"/>
<circle cx="28.8086" cy="76.323" r="5.05199" fill="white" fill-opacity="0.3"/>
<circle cx="28.8086" cy="100.08" r="5.05199" fill="white" fill-opacity="0.3"/>
<circle cx="28.8086" cy="123.837" r="5.05199" fill="white" fill-opacity="0.3"/>
<circle cx="28.8086" cy="147.594" r="5.05199" fill="white" fill-opacity="0.3"/>
<circle cx="28.8086" cy="171.352" r="5.05199" fill="white" fill-opacity="0.3"/>
<circle cx="28.8086" cy="195.108" r="5.05199" fill="white" fill-opacity="0.3"/>
<circle cx="28.8086" cy="218.865" r="5.05199" fill="white" fill-opacity="0.3"/>
<circle cx="28.8086" cy="242.622" r="5.05199" fill="white" fill-opacity="0.3"/>
<circle cx="123.837" cy="5.05199" r="5.05199" fill="white" fill-opacity="0.3"/>
<circle cx="123.837" cy="28.8093" r="5.05199" fill="white" fill-opacity="0.3"/>
<circle cx="123.837" cy="52.5662" r="5.05199" fill="white" fill-opacity="0.3"/>
<circle cx="123.837" cy="76.323" r="5.05199" fill="white" fill-opacity="0.3"/>
<circle cx="123.837" cy="100.08" r="5.05199" fill="white" fill-opacity="0.3"/>
<circle cx="123.837" cy="123.837" r="5.05199" fill="white" fill-opacity="0.3"/>
<circle cx="123.837" cy="147.594" r="5.05199" fill="white" fill-opacity="0.3"/>
<circle cx="123.837" cy="171.352" r="5.05199" fill="white" fill-opacity="0.3"/>
<circle cx="123.837" cy="195.108" r="5.05199" fill="white" fill-opacity="0.3"/>
<circle cx="123.837" cy="218.865" r="5.05199" fill="white" fill-opacity="0.3"/>
<circle cx="123.837" cy="242.622" r="5.05199" fill="white" fill-opacity="0.3"/>
<circle cx="218.865" cy="5.05199" r="5.05199" fill="white" fill-opacity="0.3"/>
<circle cx="218.865" cy="28.8093" r="5.05199" fill="white" fill-opacity="0.3"/>
<circle cx="218.865" cy="52.5662" r="5.05199" fill="white" fill-opacity="0.3"/>
<circle cx="218.865" cy="76.323" r="5.05199" fill="white" fill-opacity="0.3"/>
<circle cx="218.865" cy="100.08" r="5.05199" fill="white" fill-opacity="0.3"/>
<circle cx="218.865" cy="123.837" r="5.05199" fill="white" fill-opacity="0.3"/>
<circle cx="218.865" cy="147.594" r="5.05199" fill="white" fill-opacity="0.3"/>
<circle cx="218.865" cy="171.352" r="5.05199" fill="white" fill-opacity="0.3"/>
<circle cx="218.865" cy="195.108" r="5.05199" fill="white" fill-opacity="0.3"/>
<circle cx="218.865" cy="218.865" r="5.05199" fill="white" fill-opacity="0.3"/>
<circle cx="218.865" cy="242.622" r="5.05199" fill="white" fill-opacity="0.3"/>
<circle cx="76.3237" cy="5.05199" r="5.05199" fill="white" fill-opacity="0.3"/>
<circle cx="76.3237" cy="28.8093" r="5.05199" fill="white" fill-opacity="0.3"/>
<circle cx="76.3237" cy="52.5662" r="5.05199" fill="white" fill-opacity="0.3"/>
<circle cx="76.3237" cy="76.323" r="5.05199" fill="white" fill-opacity="0.3"/>
<circle cx="76.3237" cy="100.08" r="5.05199" fill="white" fill-opacity="0.3"/>
<circle cx="76.3237" cy="123.837" r="5.05199" fill="white" fill-opacity="0.3"/>
<circle cx="76.3237" cy="147.594" r="5.05199" fill="white" fill-opacity="0.3"/>
<circle cx="76.3237" cy="171.352" r="5.05199" fill="white" fill-opacity="0.3"/>
<circle cx="76.3237" cy="195.108" r="5.05199" fill="white" fill-opacity="0.3"/>
<circle cx="76.3237" cy="218.865" r="5.05199" fill="white" fill-opacity="0.3"/>
<circle cx="76.3237" cy="242.622" r="5.05199" fill="white" fill-opacity="0.3"/>
<circle cx="171.351" cy="5.05199" r="5.05199" fill="white" fill-opacity="0.3"/>
<circle cx="171.351" cy="28.8093" r="5.05199" fill="white" fill-opacity="0.3"/>
<circle cx="171.351" cy="52.5662" r="5.05199" fill="white" fill-opacity="0.3"/>
<circle cx="171.351" cy="76.323" r="5.05199" fill="white" fill-opacity="0.3"/>
<circle cx="171.351" cy="100.08" r="5.05199" fill="white" fill-opacity="0.3"/>
<circle cx="171.351" cy="123.837" r="5.05199" fill="white" fill-opacity="0.3"/>
<circle cx="171.351" cy="147.594" r="5.05199" fill="white" fill-opacity="0.3"/>
<circle cx="171.351" cy="171.352" r="5.05199" fill="white" fill-opacity="0.3"/>
<circle cx="171.351" cy="195.108" r="5.05199" fill="white" fill-opacity="0.3"/>
<circle cx="171.351" cy="218.865" r="5.05199" fill="white" fill-opacity="0.3"/>
<circle cx="171.351" cy="242.622" r="5.05199" fill="white" fill-opacity="0.3"/>
<circle cx="266.38" cy="5.05199" r="5.05199" fill="white" fill-opacity="0.3"/>
<circle cx="266.38" cy="28.8093" r="5.05199" fill="white" fill-opacity="0.3"/>
<circle cx="266.38" cy="52.5662" r="5.05199" fill="white" fill-opacity="0.3"/>
<circle cx="266.38" cy="76.323" r="5.05199" fill="white" fill-opacity="0.3"/>
<circle cx="266.38" cy="100.08" r="5.05199" fill="white" fill-opacity="0.3"/>
<circle cx="266.38" cy="123.837" r="5.05199" fill="white" fill-opacity="0.3"/>
<circle cx="266.38" cy="147.594" r="5.05199" fill="white" fill-opacity="0.3"/>
<circle cx="266.38" cy="171.352" r="5.05199" fill="white" fill-opacity="0.3"/>
<circle cx="266.38" cy="195.108" r="5.05199" fill="white" fill-opacity="0.3"/>
<circle cx="266.38" cy="218.865" r="5.05199" fill="white" fill-opacity="0.3"/>
<circle cx="266.38" cy="242.622" r="5.05199" fill="white" fill-opacity="0.3"/>
</svg>
