<svg width="50" height="50" viewBox="0 0 50 50" fill="none" xmlns="http://www.w3.org/2000/svg">
<g opacity="0.9">
<mask id="mask0_260_2400" style="mask-type:luminance" maskUnits="userSpaceOnUse" x="6" y="6" width="39" height="38">
<path d="M43.5001 43.5V6.49987H6.5V43.5H43.5001Z" fill="white" stroke="white"/>
</mask>
<g mask="url(#mask0_260_2400)">
<path d="M27.1877 21.4998C27.1877 23.358 26.0474 24.7495 24.682 24.7495C23.3168 24.7495 22.1094 23.3773 22.1094 21.5191C22.1094 19.6609 23.3839 18.4228 24.7492 18.4228C26.1145 18.4228 27.1877 19.6416 27.1877 21.4998Z" stroke="white" stroke-miterlimit="10" stroke-linecap="round" stroke-linejoin="round"/>
<path d="M24.8679 27.8945C22.1523 27.8194 19.6762 25.9815 18.941 23.1859C18.0924 19.9591 19.9484 16.5889 23.1277 15.5769C26.4902 14.5065 30.0663 16.3982 31.0823 19.7644C31.4418 21.1114 31.232 22.2832 30.7556 23.481C30.5667 23.956 29.9438 25.0679 28.558 25.0679C27.8015 25.0679 27.1707 24.3429 27.1749 23.5078L27.2023 17.9739" stroke="white" stroke-miterlimit="10" stroke-linecap="round" stroke-linejoin="round"/>
<path d="M31.0828 19.7644C31.4423 21.1113 31.2325 22.2831 30.7561 23.481" stroke="white" stroke-miterlimit="10" stroke-linecap="round" stroke-linejoin="round"/>
<path d="M30.3659 11.5664L24.9998 7.11327L19.6338 11.5664" stroke="white" stroke-miterlimit="10" stroke-linecap="round" stroke-linejoin="round"/>
<path d="M12.3828 17.5839L7.11328 21.957V42.8867H42.8868V21.957L37.6173 17.5839" stroke="white" stroke-miterlimit="10" stroke-linecap="round" stroke-linejoin="round"/>
<path d="M25 33.0898L37.6173 25.2368V11.5663H12.3828V25.2368L25 33.0898Z" stroke="white" stroke-miterlimit="10" stroke-linecap="round" stroke-linejoin="round"/>
<path d="M42.8868 21.957L25.0001 33.0898L7.11328 21.957V42.8867H42.8868V21.957Z" stroke="white" stroke-miterlimit="10" stroke-linecap="round" stroke-linejoin="round"/>
</g>
</g>
</svg>
