<svg width="52" height="49" viewBox="0 0 52 49" fill="none" xmlns="http://www.w3.org/2000/svg">
<path d="M41.8421 18.3447L23.9255 0.982872C23.9167 0.975024 23.9085 0.96657 23.9008 0.95757C23.2412 0.341424 22.3816 0 21.4899 0C20.5983 0 19.7387 0.341424 19.079 0.95757L19.0544 0.982872L1.15786 18.3447C0.792807 18.6895 0.501407 19.1084 0.302101 19.5748C0.102795 20.0412 -7.5346e-05 20.545 4.1405e-08 21.0544V42.3197C4.1405e-08 43.2958 0.377529 44.2319 1.04953 44.9221C1.72154 45.6123 2.63297 46 3.58333 46H39.4167C40.367 46 41.2785 45.6123 41.9505 44.9221C42.6225 44.2319 43 43.2958 43 42.3197V21.0544C43.0001 20.545 42.8972 20.0412 42.6979 19.5748C42.4986 19.1084 42.2072 18.6895 41.8421 18.3447ZM39.4167 42.3197H3.58333V21.0544L3.60797 21.0314L21.5 3.6764L39.3943 21.0268L39.4189 21.0498L39.4167 42.3197Z" fill="white"/>
<circle cx="35.125" cy="32.125" r="13.5" fill="#222222"/>
<path d="M35.2152 25.4652C33.8801 25.4652 32.5751 25.861 31.4651 26.6027C30.355 27.3444 29.4899 28.3986 28.979 29.632C28.4681 30.8654 28.3344 32.2226 28.5949 33.532C28.8553 34.8414 29.4982 36.0441 30.4422 36.9881C31.3862 37.9321 32.5889 38.575 33.8983 38.8355C35.2077 39.0959 36.5649 38.9622 37.7983 38.4513C39.0317 37.9404 40.0859 37.0753 40.8276 35.9653C41.5693 34.8552 41.9652 33.5502 41.9652 32.2152C41.9633 30.4255 41.2515 28.7097 39.9861 27.4442C38.7206 26.1788 37.0048 25.467 35.2152 25.4652ZM35.2152 36.7152C34.3251 36.7152 33.4551 36.4512 32.7151 35.9568C31.9751 35.4623 31.3983 34.7595 31.0577 33.9372C30.7171 33.115 30.628 32.2102 30.8016 31.3372C30.9753 30.4643 31.4038 29.6625 32.0332 29.0332C32.6625 28.4038 33.4643 27.9753 34.3372 27.8016C35.2102 27.628 36.115 27.7171 36.9372 28.0577C37.7595 28.3983 38.4623 28.9751 38.9568 29.7151C39.4512 30.4551 39.7152 31.3251 39.7152 32.2152C39.7152 33.4086 39.241 34.5532 38.3971 35.3971C37.5532 36.241 36.4086 36.7152 35.2152 36.7152ZM47.5902 32.5189C47.5958 32.3164 47.5958 32.1139 47.5902 31.9114L49.6883 29.2902C49.7983 29.1525 49.8744 28.991 49.9106 28.8185C49.9467 28.6461 49.9419 28.4676 49.8964 28.2973C49.5524 27.0044 49.0379 25.7631 48.3664 24.6059C48.2785 24.4545 48.1564 24.3257 48.0099 24.2297C47.8635 24.1338 47.6966 24.0734 47.5227 24.0533L44.187 23.682C44.0483 23.5358 43.9077 23.3952 43.7652 23.2602L43.3714 19.9161C43.3511 19.742 43.2905 19.5751 43.1943 19.4286C43.0981 19.2821 42.969 19.1601 42.8173 19.0723C41.6598 18.402 40.4185 17.888 39.1259 17.5437C38.9556 17.4985 38.777 17.4938 38.6046 17.5302C38.4321 17.5666 38.2706 17.643 38.1331 17.7533L35.5189 19.8402C35.3164 19.8402 35.1139 19.8402 34.9114 19.8402L32.2902 17.7462C32.1525 17.6362 31.991 17.5601 31.8185 17.5239C31.6461 17.4878 31.4676 17.4926 31.2973 17.5381C30.0046 17.8827 28.7634 18.3972 27.6059 19.0681C27.4545 19.156 27.3257 19.2781 27.2297 19.4246C27.1338 19.5711 27.0734 19.7379 27.0533 19.9119L26.682 23.2531C26.5358 23.3928 26.3952 23.5334 26.2602 23.675L22.9161 24.0589C22.742 24.0792 22.5751 24.1398 22.4286 24.236C22.2821 24.3322 22.1601 24.4613 22.0723 24.613C21.402 25.7705 20.888 27.0118 20.5437 28.3044C20.4985 28.4747 20.4938 28.6533 20.5302 28.8257C20.5666 28.9982 20.643 29.1597 20.7533 29.2972L22.8402 31.9114C22.8402 32.1139 22.8402 32.3164 22.8402 32.5189L20.7462 35.1402C20.6362 35.2778 20.5601 35.4393 20.5239 35.6118C20.4878 35.7842 20.4926 35.9627 20.5381 36.133C20.8821 37.4259 21.3966 38.6672 22.0681 39.8244C22.156 39.9758 22.2781 40.1046 22.4246 40.2006C22.5711 40.2965 22.7379 40.3569 22.9119 40.377L26.2475 40.7483C26.3872 40.8945 26.5278 41.0352 26.6694 41.1702L27.0589 44.5142C27.0792 44.6883 27.1398 44.8552 27.236 45.0017C27.3322 45.1482 27.4613 45.2702 27.613 45.358C28.7705 46.0283 30.0118 46.5423 31.3044 46.8866C31.4747 46.9318 31.6533 46.9365 31.8257 46.9001C31.9982 46.8637 32.1597 46.7873 32.2972 46.677L34.9114 44.5902C35.1139 44.5958 35.3164 44.5958 35.5189 44.5902L38.1402 46.6883C38.2778 46.7983 38.4393 46.8744 38.6118 46.9106C38.7842 46.9467 38.9627 46.9419 39.133 46.8964C40.4259 46.5524 41.6672 46.0379 42.8244 45.3664C42.9758 45.2785 43.1046 45.1564 43.2006 45.0099C43.2965 44.8635 43.3569 44.6966 43.377 44.5227L43.7483 41.187C43.8945 41.0483 44.0352 40.9077 44.1702 40.7652L47.5142 40.3714C47.6883 40.3511 47.8552 40.2905 48.0017 40.1943C48.1482 40.0981 48.2702 39.969 48.358 39.8173C49.0283 38.6598 49.5423 37.4185 49.8866 36.1259C49.9318 35.9556 49.9365 35.777 49.9001 35.6046C49.8637 35.4321 49.7873 35.2706 49.677 35.1331L47.5902 32.5189ZM45.3261 31.6048C45.35 32.0114 45.35 32.4189 45.3261 32.8255C45.3093 33.1038 45.3965 33.3784 45.5708 33.5961L47.5662 36.0894C47.3373 36.8171 47.0441 37.523 46.6902 38.1987L43.512 38.5587C43.2353 38.5895 42.9797 38.7217 42.7948 38.93C42.5241 39.2344 42.2358 39.5227 41.9314 39.7934C41.7232 39.9783 41.5909 40.2339 41.5602 40.5106L41.2072 43.6859C40.5315 44.04 39.8256 44.3332 39.0978 44.562L36.6031 42.5666C36.4035 42.4071 36.1555 42.3203 35.9 42.3205H35.8325C35.426 42.3444 35.0184 42.3444 34.6119 42.3205C34.3335 42.3037 34.0589 42.3909 33.8412 42.5652L31.3409 44.562C30.6132 44.3331 29.9073 44.0399 29.2316 43.6859L28.8716 40.512C28.8408 40.2353 28.7086 39.9797 28.5003 39.7948C28.1959 39.5241 27.9076 39.2358 27.6369 38.9314C27.452 38.7232 27.1965 38.5909 26.9197 38.5602L23.7444 38.2058C23.3903 37.5301 23.0971 36.8242 22.8683 36.0964L24.8637 33.6017C25.038 33.384 25.1252 33.1094 25.1084 32.8311C25.0845 32.4246 25.0845 32.017 25.1084 31.6105C25.1252 31.3321 25.038 31.0575 24.8637 30.8398L22.8683 28.3409C23.0972 27.6132 23.3904 26.9073 23.7444 26.2316L26.9183 25.8716C27.195 25.8408 27.4506 25.7086 27.6355 25.5003C27.9062 25.1959 28.1945 24.9076 28.4989 24.6369C28.708 24.4519 28.8408 24.1957 28.8716 23.9183L29.2245 20.7444C29.9002 20.3903 30.6062 20.0971 31.3339 19.8683L33.8286 21.8637C34.0463 22.038 34.3209 22.1252 34.5992 22.1084C35.0057 22.0845 35.4133 22.0845 35.8198 22.1084C36.0982 22.1252 36.3728 22.038 36.5905 21.8637L39.0894 19.8683C39.8171 20.0972 40.523 20.3904 41.1987 20.7444L41.5587 23.9183C41.5895 24.195 41.7217 24.4506 41.93 24.6355C42.2344 24.9062 42.5227 25.1945 42.7934 25.4989C42.9783 25.7071 43.2339 25.8394 43.5106 25.8702L46.6859 26.2231C47.04 26.8988 47.3332 27.6047 47.562 28.3325L45.5666 30.8272C45.3906 31.0467 45.3033 31.3241 45.3219 31.6048H45.3261Z" fill="white"/>
</svg>
