<svg width="309" height="159" viewBox="0 0 309 159" fill="none" xmlns="http://www.w3.org/2000/svg">
<path d="M6.5 27C46 38.5 92 59.8863 182.5 23.5C231 4.0001 313.5 23.9999 306.5 104.5C304.494 127.566 301.5 138 295 158.5" stroke="white" stroke-width="2.5" stroke-dasharray="7 7"/>
<circle cx="263" cy="33" r="33" fill="#F4AD3F"/>
<circle cx="263" cy="33" r="32" stroke="white" stroke-opacity="0.8" stroke-width="2"/>
<path d="M265 18C263.422 18.0014 261.866 18.3761 260.46 19.0935C259.054 19.8108 257.838 20.8505 256.91 22.1276C255.983 23.4048 255.371 24.8831 255.124 26.442C254.877 28.0009 255.002 29.5962 255.489 31.0975L248.293 38.2925C248.2 38.3854 248.126 38.4958 248.076 38.6171C248.026 38.7385 248 38.8686 248 39V44C248 44.2652 248.105 44.5196 248.293 44.7071C248.48 44.8946 248.735 45 249 45H254C254.265 45 254.52 44.8946 254.707 44.7071C254.895 44.5196 255 44.2652 255 44V42H257C257.265 42 257.52 41.8946 257.707 41.7071C257.895 41.5196 258 41.2652 258 41V39H260C260.131 39.0001 260.261 38.9743 260.383 38.9241C260.504 38.8739 260.615 38.8003 260.708 38.7075L261.903 37.5112C263.277 37.9575 264.732 38.1005 266.167 37.9306C267.602 37.7606 268.983 37.2817 270.215 36.5268C271.447 35.7718 272.501 34.7588 273.304 33.5575C274.107 32.3562 274.64 30.9951 274.867 29.5679C275.093 28.1408 275.008 26.6814 274.616 25.2905C274.225 23.8995 273.537 22.6099 272.599 21.5105C271.661 20.4111 270.496 19.5279 269.184 18.9219C267.873 18.3159 266.445 18.0014 265 18ZM265 36C263.988 36.0017 262.984 35.8104 262.044 35.4363C261.86 35.3564 261.656 35.3337 261.459 35.3712C261.262 35.4086 261.081 35.5045 260.939 35.6462L259.586 37H257C256.735 37 256.48 37.1054 256.293 37.2929C256.105 37.4804 256 37.7348 256 38V40H254C253.735 40 253.48 40.1054 253.293 40.2929C253.105 40.4804 253 40.7348 253 41V43H250V39.4137L257.354 32.0613C257.496 31.9194 257.591 31.7381 257.629 31.5411C257.666 31.344 257.644 31.1403 257.564 30.9563C256.931 29.3661 256.826 27.615 257.262 25.9602C257.698 24.3055 258.654 22.8342 259.988 21.7626C261.322 20.691 262.965 20.0755 264.675 20.0065C266.385 19.9375 268.072 20.4186 269.488 21.3793C270.904 22.3399 271.975 23.7293 272.544 25.3435C273.112 26.9578 273.147 28.7117 272.645 30.3476C272.143 31.9836 271.13 33.4154 269.753 34.4328C268.377 35.4502 266.711 35.9995 265 36ZM269 25.5C269 25.7967 268.912 26.0867 268.747 26.3334C268.582 26.58 268.348 26.7723 268.074 26.8858C267.8 26.9994 267.498 27.0291 267.207 26.9712C266.916 26.9133 266.649 26.7704 266.439 26.5607C266.23 26.3509 266.087 26.0836 266.029 25.7926C265.971 25.5017 266.001 25.2001 266.114 24.926C266.228 24.6519 266.42 24.4176 266.667 24.2528C266.913 24.088 267.203 24 267.5 24C267.898 24 268.279 24.158 268.561 24.4393C268.842 24.7206 269 25.1022 269 25.5Z" fill="white"/>
<circle cx="8.5" cy="28.5" r="8.5" fill="url(#paint0_linear_522_2866)"/>
<circle cx="296" cy="148" r="9" fill="url(#paint1_linear_522_2866)"/>
<defs>
<linearGradient id="paint0_linear_522_2866" x1="8.5" y1="20" x2="8.5" y2="37" gradientUnits="userSpaceOnUse">
<stop stop-color="white"/>
<stop offset="1" stop-color="#D9D9D9"/>
</linearGradient>
<linearGradient id="paint1_linear_522_2866" x1="296" y1="139" x2="296" y2="157" gradientUnits="userSpaceOnUse">
<stop stop-color="white"/>
<stop offset="1" stop-color="#D9D9D9"/>
</linearGradient>
</defs>
</svg>
