<svg width="303" height="159" viewBox="0 0 303 159" fill="none" xmlns="http://www.w3.org/2000/svg">
<path d="M0.5 27C40 38.5 86 59.8863 176.5 23.5C225 4.0001 307.5 23.9999 300.5 104.5C298.494 127.566 295.5 138 289 158.5" stroke="white" stroke-width="2.5" stroke-dasharray="7 7"/>
<circle cx="257" cy="33" r="33" fill="#F4AD3F"/>
<circle cx="257" cy="33" r="32" stroke="white" stroke-opacity="0.8" stroke-width="2"/>
<path d="M259 18C257.422 18.0014 255.866 18.3761 254.46 19.0935C253.054 19.8108 251.838 20.8505 250.91 22.1276C249.983 23.4048 249.371 24.8831 249.124 26.442C248.877 28.0009 249.002 29.5962 249.489 31.0975L242.293 38.2925C242.2 38.3854 242.126 38.4958 242.076 38.6171C242.026 38.7385 242 38.8686 242 39V44C242 44.2652 242.105 44.5196 242.293 44.7071C242.48 44.8946 242.735 45 243 45H248C248.265 45 248.52 44.8946 248.707 44.7071C248.895 44.5196 249 44.2652 249 44V42H251C251.265 42 251.52 41.8946 251.707 41.7071C251.895 41.5196 252 41.2652 252 41V39H254C254.131 39.0001 254.261 38.9743 254.383 38.9241C254.504 38.8739 254.615 38.8003 254.708 38.7075L255.903 37.5112C257.277 37.9575 258.732 38.1005 260.167 37.9306C261.602 37.7606 262.983 37.2817 264.215 36.5268C265.447 35.7718 266.501 34.7588 267.304 33.5575C268.107 32.3562 268.64 30.9951 268.867 29.5679C269.093 28.1408 269.008 26.6814 268.616 25.2905C268.225 23.8995 267.537 22.6099 266.599 21.5105C265.661 20.4111 264.496 19.5279 263.184 18.9219C261.873 18.3159 260.445 18.0014 259 18ZM259 36C257.988 36.0017 256.984 35.8104 256.044 35.4363C255.86 35.3564 255.656 35.3337 255.459 35.3712C255.262 35.4086 255.081 35.5045 254.939 35.6462L253.586 37H251C250.735 37 250.48 37.1054 250.293 37.2929C250.105 37.4804 250 37.7348 250 38V40H248C247.735 40 247.48 40.1054 247.293 40.2929C247.105 40.4804 247 40.7348 247 41V43H244V39.4137L251.354 32.0613C251.496 31.9194 251.591 31.7381 251.629 31.5411C251.666 31.344 251.644 31.1403 251.564 30.9563C250.931 29.3661 250.826 27.615 251.262 25.9602C251.698 24.3055 252.654 22.8342 253.988 21.7626C255.322 20.691 256.965 20.0755 258.675 20.0065C260.385 19.9375 262.072 20.4186 263.488 21.3793C264.904 22.3399 265.975 23.7293 266.544 25.3435C267.112 26.9578 267.147 28.7117 266.645 30.3476C266.143 31.9836 265.13 33.4154 263.753 34.4328C262.377 35.4502 260.711 35.9995 259 36ZM263 25.5C263 25.7967 262.912 26.0867 262.747 26.3334C262.582 26.58 262.348 26.7723 262.074 26.8858C261.8 26.9994 261.498 27.0291 261.207 26.9712C260.916 26.9133 260.649 26.7704 260.439 26.5607C260.23 26.3509 260.087 26.0836 260.029 25.7926C259.971 25.5017 260.001 25.2001 260.114 24.926C260.228 24.6519 260.42 24.4176 260.667 24.2528C260.913 24.088 261.203 24 261.5 24C261.898 24 262.279 24.158 262.561 24.4393C262.842 24.7206 263 25.1022 263 25.5Z" fill="white"/>
</svg>
