<svg width="56" height="56" viewBox="0 0 56 56" fill="none" xmlns="http://www.w3.org/2000/svg">
<path d="M1.05061 29.4905C1.12159 29.6857 1.25094 29.8543 1.42108 29.9735C1.59122 30.0926 1.79392 30.1565 2.00163 30.1565H7.29147V54.0157C7.29163 54.284 7.39827 54.5412 7.58797 54.7309C7.77767 54.9206 8.03491 55.0273 8.30319 55.0274H47.8007C48.069 55.0274 48.3264 54.9208 48.5161 54.7311C48.7058 54.5414 48.8124 54.284 48.8124 54.0157V30.1565H54.1023C54.31 30.1565 54.5127 30.0925 54.6828 29.9733C54.8529 29.8541 54.9822 29.6854 55.0531 29.4901C55.124 29.2949 55.1331 29.0826 55.0791 28.882C55.0252 28.6814 54.9108 28.5022 54.7515 28.3689L41.9113 17.6204C42.3225 15.5694 42.2733 13.4526 41.7674 11.4228C41.2614 9.39309 40.3112 7.50095 38.9853 5.88291C37.6595 4.26488 35.991 2.96129 34.1003 2.06619C32.2096 1.17108 30.1438 0.706787 28.0519 0.706787C25.9601 0.706787 23.8943 1.17108 22.0036 2.06619C20.1129 2.96129 18.4444 4.26488 17.1186 5.88291C15.7927 7.50095 14.8425 9.39309 14.3365 11.4228C13.8305 13.4526 13.7814 15.5694 14.1926 17.6204L1.3524 28.3689C1.19314 28.5023 1.07876 28.6815 1.02478 28.8821C0.970795 29.0828 0.979814 29.2952 1.05061 29.4905ZM24.3126 53.004H15.7471V34.6485H24.3126V53.004ZM28.0519 2.75914C29.8898 2.75809 31.7037 3.17555 33.3562 3.97984C35.0087 4.78414 36.4564 5.95415 37.5895 7.40117C38.7225 8.84818 39.5112 10.5342 39.8957 12.3314C40.2802 14.1285 40.2505 15.9897 39.8087 17.7736C39.7734 17.9222 39.7347 18.0719 39.6827 18.2396C38.9543 20.7635 37.4248 22.982 35.3248 24.5603C33.2249 26.1385 30.6686 26.9909 28.0417 26.9887C25.4147 26.9864 22.8599 26.1298 20.7626 24.548C18.6653 22.9662 17.1395 20.7451 16.4154 18.2199C16.3704 18.0742 16.3299 17.9234 16.2917 17.7574C15.8529 15.9743 15.8255 14.1147 16.2115 12.3194C16.5976 10.5241 17.3871 8.84012 18.5202 7.39504C19.6533 5.94995 21.1003 4.78159 22.7517 3.97841C24.4031 3.17523 26.2156 2.75829 28.0519 2.75914ZM14.795 19.756C15.7911 22.4707 17.5966 24.8141 19.9674 26.4696C22.3383 28.1251 25.1603 29.0128 28.0519 29.0128C30.9436 29.0128 33.7656 28.1251 36.1364 26.4696C38.5073 24.8141 40.3128 22.4707 41.3089 19.756L51.3174 28.133H47.8007C47.5324 28.133 47.275 28.2396 47.0853 28.4294C46.8956 28.6191 46.789 28.8764 46.789 29.1448V53.004H26.3361V33.6368C26.3359 33.3685 26.2293 33.1113 26.0396 32.9216C25.8499 32.7319 25.5926 32.6252 25.3243 32.6251H14.7354C14.4671 32.6251 14.2098 32.7317 14.02 32.9214C13.8303 33.1111 13.7237 33.3685 13.7237 33.6368V53.004H9.31491V29.1448C9.31476 28.8765 9.20812 28.6192 9.01842 28.4295C8.82872 28.2398 8.57147 28.1332 8.30319 28.133H4.78646L14.795 19.756Z" fill="#1C1C1E"/>
<path d="M28.326 19.1965H27.3102C26.9696 19.196 26.643 19.0604 26.4022 18.8195C26.1614 18.5786 26.0259 18.252 26.0256 17.9113C26.0256 17.643 25.9191 17.3856 25.7293 17.1959C25.5396 17.0062 25.2822 16.8996 25.0139 16.8996C24.7456 16.8996 24.4883 17.0062 24.2985 17.1959C24.1088 17.3856 24.0022 17.643 24.0022 17.9113C24.0033 18.7413 24.3161 19.5407 24.8786 20.151C25.4412 20.7613 26.2125 21.1381 27.0397 21.2066V22.6398C27.0485 22.9022 27.159 23.1509 27.3478 23.3334C27.5366 23.5159 27.7888 23.6179 28.0514 23.6179C28.3139 23.6179 28.5662 23.5159 28.755 23.3334C28.9438 23.1509 29.0542 22.9022 29.0631 22.6398V21.1465C29.9186 20.9749 30.6884 20.5128 31.242 19.8384C31.7956 19.1641 32.0989 18.319 32.1006 17.4465C32.1019 16.6977 31.8512 15.9703 31.3888 15.3813C30.9265 14.7924 30.2793 14.3762 29.5516 14.1997L27.0304 13.5852C26.7434 13.5156 26.4882 13.3515 26.3058 13.1192C26.1234 12.8869 26.0245 12.6 26.0251 12.3046V11.8381C26.0254 11.4974 26.1608 11.1708 26.4016 10.9299C26.6424 10.689 26.969 10.5534 27.3097 10.5529H28.7926C29.1332 10.5534 29.4598 10.689 29.7006 10.9299C29.9414 11.1708 30.0768 11.4974 30.0771 11.8381C30.0771 12.1064 30.1837 12.3638 30.3735 12.5535C30.5632 12.7432 30.8205 12.8498 31.0889 12.8498C31.3572 12.8498 31.6145 12.7432 31.8043 12.5535C31.994 12.3638 32.1006 12.1064 32.1006 11.8381C32.0996 11.008 31.7869 10.2086 31.2243 9.59827C30.6617 8.98792 29.8904 8.61121 29.0631 8.54279V7.10846C29.0542 6.84606 28.9438 6.59736 28.755 6.41487C28.5662 6.23238 28.3139 6.13037 28.0514 6.13037C27.7888 6.13037 27.5366 6.23238 27.3478 6.41487C27.159 6.59736 27.0485 6.84606 27.0397 7.10846V8.54163C26.2125 8.61018 25.4412 8.98694 24.8786 9.59725C24.3161 10.2076 24.0033 11.0069 24.0022 11.8369V12.3035C24.0007 13.0522 24.2513 13.7797 24.7137 14.3686C25.1762 14.9575 25.8234 15.3735 26.5512 15.5497L29.0724 16.1648C29.3594 16.2344 29.6146 16.3985 29.797 16.6308C29.9794 16.8631 30.0782 17.15 30.0777 17.4453C30.077 17.9096 29.8921 18.3547 29.5638 18.6829C29.2354 19.0112 28.7903 19.1959 28.326 19.1965Z" fill="#1C1C1E"/>
<path d="M41.402 45.2703C41.6703 45.2702 41.9275 45.1635 42.1172 44.9738C42.3069 44.7841 42.4136 44.5269 42.4137 44.2586V33.6361C42.4134 33.368 42.3067 33.1109 42.117 32.9213C41.9273 32.7317 41.6702 32.6252 41.402 32.625H30.7795C30.5112 32.625 30.2539 32.7316 30.0641 32.9213C29.8744 33.1111 29.7678 33.3684 29.7678 33.6367V44.2586C29.7678 44.5269 29.8744 44.7843 30.0641 44.974C30.2539 45.1637 30.5112 45.2703 30.7795 45.2703H41.402ZM31.7913 34.6484H40.3903V43.2469H31.7913V34.6484Z" fill="#1C1C1E"/>
</svg>
