<svg width="59" height="59" viewBox="0 0 59 59" fill="none" xmlns="http://www.w3.org/2000/svg">
<path d="M47.2133 23.7601C47.0899 10.7991 36.5359 0.677246 23.9453 0.677246C11.0461 0.677246 0.800791 11.1077 0.677354 23.7601C0.553916 36.6593 10.9844 47.2132 23.9453 47.2132C28.0188 47.2132 32.0922 46.164 35.7336 44.0038L48.1391 56.4093C50.4227 58.6929 54.1258 58.6929 56.4094 56.4093C58.693 54.1257 58.693 50.4226 56.4094 48.139L44.0039 35.7335C46.0406 32.2772 47.275 28.0804 47.2133 23.7601ZM24.3156 45.053C17.0945 45.1765 10.1203 41.5968 6.04689 35.178C13.6383 35.178 41.782 35.178 41.8438 35.178C38.0172 41.2882 31.2899 44.9296 24.3156 45.053ZM27.0313 23.3897H20.8594C20.2422 23.3897 19.7484 23.8835 19.7484 24.5007V32.9562H15.3047V21.4765C16.1688 20.7358 12.0953 24.0687 23.9453 14.5022L32.5859 21.4765V32.9562H28.1422V24.5007C28.0805 23.8835 27.6484 23.3897 27.0313 23.3897ZM25.982 25.5499V32.9562H21.9703V25.5499H25.982ZM54.8664 49.6819C56.2859 51.1015 56.2859 53.4468 54.8664 54.8663C53.4469 56.2858 51.1016 56.2858 49.682 54.8663L37.5852 42.7694C39.5602 41.3499 41.35 39.5601 42.7695 37.5851L54.8664 49.6819ZM43.0164 32.9562H34.7461V23.2046L36.2891 24.439C36.7828 24.8093 37.4617 24.7476 37.832 24.2538C38.2024 23.7601 38.1406 23.0812 37.6469 22.7108C37.6469 22.7108 24.9945 12.5272 24.6242 12.2804C24.1922 11.9101 23.7602 11.8483 23.2664 12.2804C22.9578 12.5272 11.6016 21.6616 10.2438 22.7108C9.75001 23.0812 9.68829 23.7601 10.0586 24.2538C10.4289 24.7476 11.1078 24.8093 11.6016 24.439L13.1445 23.2046V32.9562H4.81251C3.39298 29.9937 2.77579 26.846 2.77579 23.6983C2.89923 11.9718 12.4656 2.77568 23.8836 2.77568C35.6102 2.8374 44.9297 12.2187 45.0531 23.7601C45.1149 26.9077 44.436 30.0554 43.0164 32.9562Z" fill="white" fill-opacity="0.9"/>
</svg>
