<svg width="371" height="158" viewBox="0 0 371 158" fill="none" xmlns="http://www.w3.org/2000/svg">
<path d="M6.44125 7C-1.54906 100.032 101.007 37.6355 149.735 102.229C208.864 180.61 320.45 170.183 362 94" stroke="white" stroke-width="2.5" stroke-dasharray="7 7"/>
<circle cx="162" cy="108" r="33" fill="#F29B46"/>
<circle cx="162" cy="108" r="32" stroke="white" stroke-opacity="0.8" stroke-width="2"/>
<path d="M177.611 101.835L163.861 88.8624C163.855 88.8565 163.848 88.8502 163.843 88.8434C163.336 88.383 162.677 88.1279 161.992 88.1279C161.308 88.1279 160.648 88.383 160.142 88.8434L160.123 88.8624L146.389 101.835C146.108 102.093 145.885 102.406 145.732 102.755C145.579 103.103 145.5 103.48 145.5 103.86V119.75C145.5 120.479 145.79 121.179 146.305 121.695C146.821 122.21 147.521 122.5 148.25 122.5H175.75C176.479 122.5 177.179 122.21 177.695 121.695C178.21 121.179 178.5 120.479 178.5 119.75V103.86C178.5 103.48 178.421 103.103 178.268 102.755C178.115 102.406 177.892 102.093 177.611 101.835ZM175.75 119.75H148.25V103.86L148.269 103.843L162 90.875L175.733 103.84L175.752 103.857L175.75 119.75Z" fill="white" fill-opacity="0.8"/>
<path d="M155 109.5L159.687 113.761C160.123 114.157 160.806 114.092 161.159 113.621L168 104.5" stroke="white" stroke-opacity="0.8" stroke-width="2" stroke-linecap="round"/>
<circle cx="8.5" cy="8.5" r="8.5" fill="url(#paint0_linear_522_2867)"/>
<circle cx="362.5" cy="92.5" r="8.5" fill="url(#paint1_linear_522_2867)"/>
<defs>
<linearGradient id="paint0_linear_522_2867" x1="8.5" y1="0" x2="8.5" y2="17" gradientUnits="userSpaceOnUse">
<stop stop-color="white"/>
<stop offset="1" stop-color="#D9D9D9"/>
</linearGradient>
<linearGradient id="paint1_linear_522_2867" x1="362.5" y1="84" x2="362.5" y2="101" gradientUnits="userSpaceOnUse">
<stop stop-color="white"/>
<stop offset="1" stop-color="#D9D9D9"/>
</linearGradient>
</defs>
</svg>
