<svg width="360" height="152" viewBox="0 0 360 152" fill="none" xmlns="http://www.w3.org/2000/svg">
<path d="M2.44125 1C-5.54906 94.0317 97.007 31.6355 145.735 96.2293C204.864 174.61 316.45 164.183 358 88" stroke="white" stroke-width="2.5" stroke-dasharray="7 7"/>
<circle cx="158" cy="102" r="33" fill="#F29B46"/>
<circle cx="158" cy="102" r="32" stroke="white" stroke-opacity="0.8" stroke-width="2"/>
<path d="M173.611 95.8355L159.861 82.8624C159.855 82.8565 159.848 82.8502 159.843 82.8434C159.336 82.383 158.677 82.1279 157.992 82.1279C157.308 82.1279 156.648 82.383 156.142 82.8434L156.123 82.8624L142.389 95.8355C142.108 96.0931 141.885 96.4061 141.732 96.7546C141.579 97.1031 141.5 97.4796 141.5 97.8602V113.75C141.5 114.479 141.79 115.179 142.305 115.695C142.821 116.21 143.521 116.5 144.25 116.5H171.75C172.479 116.5 173.179 116.21 173.695 115.695C174.21 115.179 174.5 114.479 174.5 113.75V97.8602C174.5 97.4796 174.421 97.1031 174.268 96.7546C174.115 96.4061 173.892 96.0931 173.611 95.8355ZM171.75 113.75H144.25V97.8602L144.269 97.843L158 84.875L171.733 97.8395L171.752 97.8567L171.75 113.75Z" fill="white" fill-opacity="0.8"/>
<path d="M151 103.5L155.687 107.761C156.123 108.157 156.806 108.092 157.159 107.621L164 98.5" stroke="white" stroke-opacity="0.8" stroke-width="2" stroke-linecap="round"/>
</svg>
