<svg width="56" height="48" viewBox="0 0 56 48" fill="none" xmlns="http://www.w3.org/2000/svg">
<path d="M23.4409 23.4564V13.5065C24.3859 13.8729 25.4983 13.5973 26.1512 12.7573C26.5362 12.2618 26.7047 11.6449 26.627 11.0193C26.5483 10.3937 26.2332 9.83698 25.7378 9.45198L23.4409 7.66589V2.9037C23.4409 2.16432 22.8393 1.56385 22.1011 1.56385H20.0711C19.3317 1.56385 18.7312 2.16542 18.7312 2.9037V4.0051L14.8036 0.95026C14.4583 0.681774 14.0334 0.536011 13.5961 0.536011C13.1587 0.536011 12.7338 0.681774 12.3886 0.95026L1.45434 9.45307C0.429497 10.2504 0.24356 11.7324 1.0409 12.7573C1.50465 13.3534 2.20028 13.6651 2.90247 13.6651C3.18903 13.6651 3.47778 13.6115 3.75122 13.5043V23.4553C3.75122 24.281 4.42387 24.9537 5.24965 24.9537H21.9425C22.7682 24.9548 23.4409 24.2821 23.4409 23.4564ZM2.07668 11.9523C1.7234 11.4984 1.80543 10.8421 2.25934 10.4899L13.1936 1.98714C13.3161 1.89198 13.455 1.84495 13.595 1.84495C13.735 1.84495 13.875 1.89198 13.9964 1.98714L18.9839 5.86557C19.0809 5.9409 19.1971 5.9875 19.3193 6.00006C19.4414 6.01262 19.5647 5.99065 19.675 5.93663C19.7853 5.88262 19.8782 5.79874 19.9432 5.69453C20.0082 5.59031 20.0426 5.46995 20.0426 5.34714V2.9037C20.0426 2.88948 20.0557 2.87635 20.07 2.87635H22.1C22.1142 2.87635 22.1273 2.88948 22.1273 2.9037V7.98854C22.1273 8.19089 22.2203 8.38229 22.3811 8.50698L24.9317 10.4899C25.1504 10.6595 25.2893 10.9056 25.3243 11.1834C25.3593 11.4612 25.285 11.7335 25.1154 11.9523C24.7622 12.4062 24.1059 12.4882 23.6531 12.1349L14.8036 5.25307C14.4583 4.98459 14.0334 4.83882 13.5961 4.83882C13.1587 4.83882 12.7338 4.98459 12.3886 5.25307L3.53903 12.1349C3.08512 12.4882 2.42997 12.4062 2.07668 11.9523ZM5.06372 23.4564V12.6129L13.1947 6.28995C13.4386 6.10073 13.7536 6.10073 13.9975 6.28995L22.1284 12.6129V23.4564C22.1284 23.557 22.0431 23.6423 21.9425 23.6423H17.9076V15.4501C17.9076 14.6593 17.2645 14.0162 16.4737 14.0162H10.7173C9.92653 14.0162 9.2834 14.6593 9.2834 15.4501V23.6423H5.24965C5.14903 23.6423 5.06372 23.557 5.06372 23.4564ZM16.5951 23.6423H10.5959V15.4501C10.5959 15.3845 10.6517 15.3287 10.7173 15.3287H16.4737C16.5393 15.3287 16.5951 15.3845 16.5951 15.4501V23.6423ZM54.545 31.9657L52.2481 30.1796V25.4153C52.2481 24.6759 51.6465 24.0754 50.9083 24.0754H48.8783C48.1389 24.0754 47.5384 24.677 47.5384 25.4153V26.5167L43.6108 23.4618C43.2656 23.1931 42.8407 23.0472 42.4033 23.0472C41.9658 23.0472 41.5409 23.1931 41.1958 23.4618L30.2615 31.9646C29.7661 32.3496 29.4511 32.9064 29.3723 33.532C29.2936 34.1576 29.4631 34.7745 29.8481 35.27C30.2331 35.7654 30.7898 36.0804 31.4154 36.1592C31.8022 36.2085 32.1952 36.16 32.5584 36.0181V45.9679C32.5584 46.7937 33.2311 47.4664 34.0568 47.4664H50.7497C51.5754 47.4664 52.2481 46.7937 52.2481 45.9679V36.0203C52.6068 36.1592 52.9973 36.2084 53.3911 36.1592C54.0167 36.0804 54.5734 35.7654 54.9584 35.27C55.7558 34.2462 55.5709 32.7631 54.545 31.9657ZM45.4034 46.1549H39.4042V37.9628C39.4042 37.8971 39.46 37.8414 39.5256 37.8414H45.282C45.3476 37.8414 45.4034 37.8971 45.4034 37.9628V46.1549ZM50.7497 46.1549H46.7148V37.9628C46.7148 37.172 46.0717 36.5289 45.2809 36.5289H39.5245C38.7337 36.5289 38.0906 37.172 38.0906 37.9628V46.1549H34.0557C33.9551 46.1549 33.8698 46.0696 33.8698 45.969V35.1256L42.0008 28.8026C42.2447 28.6134 42.5597 28.6134 42.8036 28.8026L50.9345 35.1256V45.969C50.9356 46.0696 50.8503 46.1549 50.7497 46.1549ZM53.9226 34.4649C53.7531 34.6837 53.507 34.8226 53.2292 34.8576C52.9514 34.8926 52.6779 34.8182 52.4603 34.6487L43.6108 27.7668C43.2658 27.4978 42.8407 27.3519 42.4033 27.3523C41.9778 27.3523 41.5512 27.4901 41.1958 27.7668L32.3462 34.6487C32.1275 34.8182 31.8551 34.8926 31.5773 34.8576C31.2995 34.8226 31.0534 34.6837 30.8839 34.4649C30.7143 34.2462 30.64 33.9739 30.675 33.696C30.71 33.4182 30.8489 33.1721 31.0676 33.0026L42.0018 24.4998C42.2458 24.3106 42.5607 24.3106 42.8047 24.4998L47.7922 28.3782C47.8892 28.4536 48.0054 28.5002 48.1275 28.5127C48.2497 28.5253 48.373 28.5033 48.4833 28.4493C48.5936 28.3953 48.6865 28.3114 48.7515 28.2072C48.8165 28.103 48.8509 27.9826 48.8509 27.8598V25.4164C48.8509 25.4021 48.864 25.389 48.8783 25.389H50.9083C50.9225 25.389 50.9356 25.4021 50.9356 25.4164V30.5012C50.9356 30.7035 51.0286 30.8949 51.1893 31.0196L53.74 33.0026C54.1939 33.3548 54.2759 34.011 53.9226 34.4649ZM26.6434 37.0429H15.5648V35.1606L15.8973 35.4931C16.4092 36.0049 17.2415 36.0049 17.7534 35.4931L18.6809 34.5656C18.9281 34.3184 19.0648 33.9881 19.0648 33.637C19.0648 33.2859 18.9281 32.9567 18.6809 32.7084L14.5236 28.551C14.2764 28.3039 13.9461 28.1671 13.595 28.1671C13.2439 28.1671 12.9147 28.3039 12.6664 28.551L8.50903 32.7084C7.99715 33.2203 7.99715 34.0526 8.50903 34.5645L9.43653 35.492C9.9484 36.0039 10.7807 36.0039 11.2926 35.492L11.6251 35.1595V39.6668C11.6251 40.3909 12.2136 40.9793 12.9376 40.9793H26.6434C27.3675 40.9793 27.9559 40.3909 27.9559 39.6668V38.3554C27.9559 37.6314 27.3675 37.0429 26.6434 37.0429ZM26.6434 39.6679H12.9398V33.5768C12.9398 33.311 12.7801 33.0726 12.5351 32.9709C12.4154 32.921 12.2836 32.9079 12.1564 32.9332C12.0292 32.9585 11.9124 33.0211 11.8209 33.1131L10.3673 34.5656L9.43981 33.637L13.5972 29.4796L17.7545 33.637L16.827 34.5645L15.3745 33.112C15.1864 32.9239 14.9042 32.8681 14.6592 32.9698C14.4142 33.0715 14.2545 33.311 14.2545 33.5757V37.4793C14.2545 37.9617 14.6472 38.3543 15.1295 38.3543H26.6456L26.6434 39.6679ZM32.1822 10.957H40.4356V12.8393L40.1031 12.5068C39.5912 11.9949 38.7589 11.9949 38.247 12.5068L37.3195 13.4343C37.0723 13.6815 36.9356 14.0118 36.9356 14.3629C36.9356 14.714 37.0723 15.0432 37.3195 15.2915L41.4768 19.4489C41.724 19.696 42.0543 19.8328 42.4054 19.8328C42.7565 19.8328 43.0858 19.696 43.334 19.4489L47.4914 15.2915C47.7386 15.0443 47.8753 14.714 47.8753 14.3629C47.8753 14.0118 47.7386 13.6826 47.4914 13.4343L46.5639 12.5068C46.3167 12.2596 45.9864 12.1229 45.6353 12.1229C45.2842 12.1229 44.955 12.2596 44.7067 12.5068L44.3742 12.8393V7.67573C44.3742 7.3137 44.08 7.01948 43.7179 7.01948H32.1822C31.4581 7.01948 30.8697 7.60792 30.8697 8.33198V9.64338C30.8686 10.3685 31.4581 10.957 32.1822 10.957ZM32.1822 8.33198H43.0606V14.4242C43.0606 14.6899 43.2203 14.9284 43.4653 15.0301C43.7103 15.1318 43.9925 15.076 44.1806 14.8879L45.6342 13.4354L46.5617 14.3629L42.4043 18.5203L38.247 14.3629L39.1745 13.4354L40.627 14.8879C40.8151 15.076 41.0973 15.1318 41.3423 15.0301C41.5873 14.9284 41.747 14.6889 41.747 14.4242V10.5195C41.747 10.0371 41.3543 9.64448 40.872 9.64448H32.1811L32.1822 8.33198Z" fill="#F08E35"/>
</svg>
