<svg width="48" height="54" viewBox="0 0 48 54" fill="none" xmlns="http://www.w3.org/2000/svg">
<path d="M8.85405 53.32C-4.8887 52.291 -0.503202 32.0155 12.459 36.7125L16.2425 29.9995C15.526 29.5362 14.8514 29.0109 14.2265 28.4298C13.0313 28.7168 11.5805 30.6505 10.107 28.6468L7.8548 24.739C7.61344 24.316 7.54863 23.8149 7.67444 23.3445C7.80025 22.874 8.10653 22.4721 8.5268 22.226L10.0283 21.3545C9.56523 19.1802 9.57776 16.9314 10.065 14.7623C9.94255 14.5313 9.7238 14.4648 9.46305 14.323C8.32555 13.7858 7.03405 12.7883 7.8478 11.278L10.079 7.39654C10.1999 7.18656 10.361 7.00254 10.5532 6.85507C10.7455 6.70761 10.9649 6.59961 11.199 6.53729C12.1423 6.17504 13.3393 7.20754 14.118 7.59429C15.7645 6.10669 17.7121 4.99115 19.8283 4.32354C20.117 3.38554 19.5518 2.13779 20.4425 1.21904C20.6097 1.0447 20.8109 0.906576 21.0337 0.813252C21.2565 0.719928 21.496 0.673395 21.7375 0.676541H26.2456C28.6553 0.816541 28.1478 3.57454 27.9185 5.16179L28.1723 4.32354C30.2586 4.96819 32.172 6.07681 33.7688 7.56629C34.0261 7.58029 34.201 7.41754 34.453 7.26179C35.4873 6.53904 37.008 5.91254 37.911 7.38254L40.1458 11.2623C40.3872 11.6853 40.452 12.1864 40.3262 12.6569C40.2003 13.1273 39.8941 13.5292 39.4738 13.7753L37.9723 14.6468C38.4407 16.8206 38.4282 19.0706 37.9355 21.239C37.9705 21.4805 38.373 21.554 38.541 21.68C39.6785 22.2173 40.9648 23.213 40.1528 24.725L37.9215 28.6048C36.8313 30.3478 35.1426 29.1823 33.9508 28.4438L33.7758 28.4315C33.1498 29.012 32.4747 29.5372 31.758 30.0013L35.5345 36.7038C44.8043 32.8678 52.3941 45.2718 44.2198 51.5228C39.3005 55.714 30.736 52.158 30.4368 45.522H17.618C17.3865 47.6779 16.3608 49.6705 14.7407 51.1116C13.1207 52.5528 11.0222 53.3394 8.85405 53.3183V53.32ZM36.4445 51.0888C37.467 51.4787 38.5668 51.6227 39.6551 51.509C40.7435 51.3953 41.7898 51.0271 42.7095 50.4343C42.7713 49.7146 42.6201 48.9926 42.2747 48.3582C41.9293 47.7237 41.405 47.2048 40.767 46.866C40.2324 47.1643 39.6301 47.3204 39.0179 47.3191C38.4057 47.3179 37.804 47.1595 37.2705 46.859C36.6217 47.2038 36.0906 47.7345 35.7452 48.3829C35.3997 49.0314 35.2557 49.7682 35.3316 50.499C35.682 50.7321 36.0549 50.9297 36.4445 51.0888ZM6.5948 51.1553C7.59701 51.5071 8.66622 51.6258 9.72119 51.5024C10.7762 51.379 11.7891 51.0167 12.683 50.443C12.7463 49.722 12.5956 48.9983 12.2498 48.3624C11.904 47.7265 11.3784 47.2066 10.7388 46.8678C10.2038 47.1653 9.60154 47.3208 8.98941 47.3192C8.37727 47.3177 7.77575 47.1593 7.2423 46.859C6.59479 47.2028 6.06427 47.7316 5.71833 48.378C5.37239 49.0243 5.2267 49.7591 5.2998 50.4885C5.70444 50.7593 6.13898 50.9842 6.5948 51.1553ZM32.99 41.2818C32.3452 42.5099 32.0652 43.8968 32.183 45.2788C32.3009 46.6609 32.8116 47.9804 33.655 49.0815C33.9349 47.6635 34.7623 46.4129 35.958 45.6008C35.6535 45.0564 35.4946 44.4426 35.4969 43.8188C35.4992 43.195 35.6626 42.5824 35.9711 42.0402C36.2797 41.4981 36.723 41.0448 37.2582 40.7243C37.7933 40.4038 38.4022 40.2269 39.0258 40.2108C39.6524 40.2177 40.2661 40.3894 40.8053 40.7087C41.3445 41.0279 41.7901 41.4835 42.0975 42.0295C42.4048 42.5756 42.563 43.1929 42.5562 43.8195C42.5494 44.4461 42.3777 45.0598 42.0585 45.599C43.2446 46.39 44.0709 47.6169 44.358 49.0133C50.3658 41.1593 38.0685 32.831 32.99 41.2818ZM8.93455 37.7538C7.63352 37.7743 6.36439 38.1597 5.2717 38.8662C4.17901 39.5727 3.30668 40.5718 2.75406 41.7498C2.20144 42.9278 1.99075 44.2373 2.14597 45.5292C2.3012 46.8211 2.8161 48.0435 3.63205 49.057C3.916 47.6486 4.74098 46.4077 5.9298 45.6008C5.6268 45.0562 5.46922 44.4427 5.47226 43.8194C5.47529 43.1962 5.63883 42.5843 5.94711 42.0426C6.2554 41.501 6.69802 41.0479 7.23232 40.727C7.76662 40.4062 8.37456 40.2284 8.99755 40.2108C9.62427 40.2174 10.2382 40.3889 10.7776 40.708C11.3171 41.0271 11.763 41.4827 12.0705 42.0288C12.3781 42.5749 12.5364 43.1923 12.5297 43.8191C12.5229 44.4458 12.3513 45.0597 12.032 45.599C13.2227 46.3932 14.0507 47.6263 14.335 49.029C18.1238 44.815 14.559 37.479 8.93455 37.7538ZM7.9038 45.1948C8.21177 45.4335 8.58977 45.5642 8.97943 45.5668C9.36909 45.5693 9.74875 45.4435 10.0598 45.2088C10.3637 44.9844 10.5892 44.6701 10.7044 44.3104C10.8196 43.9506 10.8187 43.5638 10.7018 43.2046C10.5848 42.8454 10.3578 42.5322 10.0528 42.3093C9.74791 42.0864 9.38055 41.9651 9.00283 41.9626C8.62511 41.9602 8.25621 42.0767 7.9484 42.2956C7.6406 42.5146 7.40952 42.8248 7.28792 43.1824C7.16632 43.5401 7.16037 43.9269 7.27091 44.2881C7.38145 44.6493 7.60288 44.9665 7.9038 45.1948ZM37.7868 45.0985C38.1 45.3771 38.4992 45.5401 38.9179 45.5601C39.3367 45.5802 39.7496 45.4562 40.0881 45.2088V45.207L40.0915 45.2053L40.0933 45.2035V45.2H40.0968L40.0985 45.1983C40.3931 44.9733 40.6112 44.663 40.7232 44.3096C40.8352 43.9563 40.8357 43.577 40.7245 43.2234C40.6133 42.8698 40.396 42.559 40.1019 42.3333C39.8079 42.1076 39.4515 41.9779 39.0811 41.9619C38.7108 41.9459 38.3445 42.0444 38.0322 42.2439C37.7197 42.4434 37.4764 42.7343 37.3352 43.077C37.1939 43.4198 37.1617 43.7977 37.2428 44.1594C37.3239 44.521 37.5127 44.849 37.7868 45.0985ZM17.5953 43.772H30.407C30.5322 42.5402 30.9179 41.3491 31.5385 40.2777C32.1592 39.2064 33.0005 38.2792 34.0068 37.5578L30.2355 30.8623C29.5735 31.1884 28.8865 31.4611 28.181 31.6778C27.9658 32.0015 28.1775 32.8975 28.0883 33.4453C28.0883 34.1628 28.258 35.2985 27.2133 35.3248H20.7873C19.3068 35.3265 20.1555 32.677 19.865 31.6918C19.1435 31.4733 18.4411 31.1959 17.765 30.8623L13.9833 37.5753C14.9928 38.2905 15.8375 39.2136 16.4605 40.2824C17.0835 41.3513 17.4705 42.5412 17.5953 43.772ZM21.755 33.5748H26.2456C26.403 33.4383 26.3208 32.5738 26.3383 32.3743C26.3908 31.6218 26.046 30.4318 27.0155 30.1815C28.0869 29.9196 29.1173 29.5122 30.078 28.9705C31.9663 28.1375 33.1895 25.4793 35.398 27.266C35.7021 27.4897 36.0425 27.659 36.4043 27.7665L38.6268 23.8658C38.408 23.4633 37.3948 23.1273 37.0185 22.8193C36.6958 22.6146 36.4458 22.3132 36.3044 21.9581C36.163 21.603 36.1373 21.2123 36.231 20.8418C36.6687 18.9736 36.6687 17.0295 36.231 15.1613C36.1385 14.7758 36.1722 14.3708 36.3272 14.006C36.4822 13.6411 36.7503 13.3357 37.092 13.1348L38.5936 12.2633L36.4025 8.26979C35.9388 8.23829 35.1425 8.98554 34.6788 9.15179C34.3415 9.32967 33.9566 9.39602 33.5792 9.3413C33.2019 9.28659 32.8516 9.11363 32.5788 8.84729C31.1767 7.53948 29.4967 6.56606 27.6648 6.00004C27.2833 5.8896 26.9479 5.65855 26.7088 5.34149C26.4696 5.02443 26.3397 4.63842 26.3383 4.24129C26.3797 3.62994 26.358 3.01595 26.2735 2.40904L21.755 2.42829C21.517 2.81854 21.7358 3.84929 21.657 4.32704C21.6427 4.70971 21.5071 5.07793 21.27 5.3786C21.0328 5.67928 20.7063 5.89688 20.3375 6.00004C18.5048 6.56628 16.8242 7.54032 15.4218 8.84904C15.1349 9.12085 14.7682 9.29313 14.3758 9.34041C13.9834 9.38768 13.5863 9.30744 13.243 9.11154L11.7258 8.23654L9.3738 12.139C9.4228 12.328 9.9968 12.629 10.2733 12.7743C10.7753 12.9113 11.2077 13.2316 11.4851 13.6719C11.7624 14.1122 11.8646 14.6406 11.7713 15.1525C11.5542 16.0874 11.4426 17.0436 11.4388 18.0033C11.2235 19.5538 12.6585 21.8218 10.9085 22.8683L9.40705 23.7398L11.598 27.7333C12.7355 27.4848 13.936 25.8205 15.4218 27.1558C16.9902 28.6203 18.9052 29.6621 20.9868 30.1833C21.7533 30.3355 21.678 31.2193 21.6623 31.816C21.7498 32.3918 21.5363 33.2458 21.755 33.5748ZM23.8515 27.2345C22.4238 27.2195 21.0193 26.8703 19.7507 26.215C18.4821 25.5597 17.3846 24.6164 16.546 23.4608C15.7074 22.3051 15.151 20.9691 14.9215 19.5599C14.6919 18.1506 14.7956 16.7071 15.224 15.345C18.2375 5.16704 33.1371 7.50679 33.2228 17.998C33.2213 19.2219 32.9769 20.4334 32.5037 21.5621C32.0305 22.6909 31.3381 23.7145 30.4664 24.5736C29.5947 25.4328 28.5612 26.1104 27.4257 26.5671C26.2902 27.0239 25.0753 27.2508 23.8515 27.2345ZM21.4103 25.04C22.5019 25.4226 23.6666 25.5496 24.815 25.4112C25.9633 25.2729 27.0646 24.8729 28.034 24.242C28.1087 23.4443 27.9436 22.6424 27.5598 21.9391C27.176 21.2357 26.591 20.663 25.8798 20.294C25.3081 20.6201 24.661 20.7909 24.0029 20.7897C23.3447 20.7885 22.6983 20.6152 22.1278 20.287C21.4068 20.6617 20.8158 21.2455 20.4323 21.9619C20.0489 22.6783 19.8908 23.4938 19.9788 24.3015C20.4249 24.6037 20.9055 24.8516 21.4103 25.04ZM23.939 10.508C22.5167 10.5318 21.1302 10.9576 19.9397 11.7363C18.7492 12.515 17.8035 13.6148 17.2119 14.9084C16.6203 16.2021 16.4069 17.6368 16.5964 19.0466C16.786 20.4565 17.3707 21.7838 18.283 22.8753C18.4201 22.0967 18.7142 21.3542 19.1475 20.6929C19.5807 20.0316 20.144 19.4654 20.803 19.0288C20.4661 18.4554 20.2848 17.8038 20.2774 17.1387C20.2699 16.4736 20.4365 15.8182 20.7605 15.2373C21.0845 14.6565 21.5548 14.1704 22.1246 13.8274C22.6945 13.4844 23.3441 13.2963 24.009 13.2818C24.6761 13.2895 25.3292 13.4739 25.9017 13.8163C26.4743 14.1586 26.9458 14.6466 27.2683 15.2306C27.5908 15.8145 27.7527 16.4736 27.7375 17.1405C27.7223 17.8074 27.5306 18.4584 27.1818 19.027C27.8388 19.4548 28.4016 20.0123 28.8355 20.6653C29.2694 21.3183 29.5654 22.0531 29.7053 22.8245C30.6137 21.7267 31.1916 20.3934 31.3716 18.9799C31.5517 17.5664 31.3265 16.1308 30.7224 14.8403C30.1182 13.5498 29.1598 12.4575 27.9589 11.6905C26.758 10.9235 25.364 10.5135 23.939 10.508ZM22.7893 18.6193C23.1344 18.8874 23.5586 19.0335 23.9956 19.0347C24.4326 19.036 24.8577 18.8924 25.2043 18.6263H25.2078L25.2095 18.6228L25.2113 18.621L25.2148 18.6193V18.6175L25.2183 18.6158L25.22 18.614C25.5516 18.3592 25.795 18.0069 25.916 17.6066C26.0369 17.2063 26.0294 16.7781 25.8944 16.3823C25.7594 15.9865 25.5038 15.643 25.1634 15.4C24.8231 15.157 24.4151 15.0269 23.9969 15.0278C23.5787 15.0287 23.1714 15.1606 22.832 15.4051C22.4927 15.6495 22.2386 15.9941 22.1053 16.3905C21.972 16.7869 21.9663 17.2151 22.089 17.6149C22.2117 18.0146 22.4566 18.3659 22.7893 18.6193Z" fill="#F08E35"/>
</svg>
