<svg width="50" height="52" viewBox="0 0 50 52" fill="none" xmlns="http://www.w3.org/2000/svg">
<path fill-rule="evenodd" clip-rule="evenodd" d="M48.7661 34.7839L38.0571 26.5946V5.09251C38.0571 4.91349 37.986 4.7418 37.8594 4.61521C37.7329 4.48862 37.5612 4.41751 37.3821 4.41751H29.9571L26.4264 0.884305C26.3 0.758421 26.129 0.687666 25.9506 0.6875H1.07368C0.985039 0.6875 0.897265 0.704959 0.81537 0.738881C0.733475 0.772803 0.659064 0.822523 0.596384 0.885203C0.533705 0.947883 0.483985 1.02229 0.450063 1.10419C0.416141 1.18608 0.398682 1.27386 0.398682 1.3625V43.7188C0.399601 43.8972 0.471106 44.0681 0.597578 44.194C0.724051 44.3199 0.895213 44.3907 1.07368 44.3908H4.00751V47.4534C4.00829 47.6319 4.07975 47.8028 4.20625 47.9288C4.33275 48.0547 4.504 48.1255 4.68251 48.1254H25.9777V49.5322C25.9778 50.0043 26.1655 50.4571 26.4993 50.7909C26.8331 51.1247 27.2859 51.3124 27.758 51.3125H43.7946C44.2661 51.3117 44.7181 51.124 45.0514 50.7905C45.3847 50.457 45.5722 50.005 45.5727 49.5335V37.7095L46.177 38.1712C46.6262 38.5145 47.1933 38.6654 47.7537 38.5905C48.3141 38.5156 48.8218 38.2212 49.1652 37.7721C49.5085 37.3229 49.6593 36.7557 49.5845 36.1953C49.5096 35.6349 49.2152 35.1272 48.766 34.7839H48.7661ZM36.7124 5.76477V25.6467C36.3449 25.5013 35.9482 25.4455 35.5549 25.4837C35.1616 25.522 34.783 25.6533 34.4504 25.8667V9.18649C34.4504 9.09832 34.433 9.01102 34.3992 8.92958C34.3654 8.84814 34.3159 8.77416 34.2535 8.71188L31.3063 5.76477H36.7124ZM26.6227 2.9825L32.1554 8.51507H26.6227V2.9825ZM1.74583 2.03191H25.2785V9.18754C25.2785 9.27619 25.296 9.36396 25.3299 9.44585C25.3639 9.52775 25.4136 9.60216 25.4763 9.66484C25.5389 9.72752 25.6133 9.77724 25.6952 9.81116C25.7771 9.84508 25.8649 9.86254 25.9535 9.86254H33.1061V26.8904L24.7436 33.286H14.4363C14.3473 33.2849 14.259 33.3014 14.1765 33.3347C14.0939 33.368 14.0188 33.4173 13.9555 33.4798C13.8922 33.5424 13.842 33.6168 13.8077 33.6989C13.7733 33.781 13.7557 33.8691 13.7557 33.9581C13.7557 34.0471 13.7733 34.1352 13.8077 34.2173C13.842 34.2994 13.8922 34.3738 13.9555 34.4363C14.0188 34.4989 14.0939 34.5482 14.1765 34.5815C14.259 34.6147 14.3473 34.6313 14.4363 34.6302H22.9861L22.7853 34.7839C22.5257 34.983 22.3154 35.2391 22.1706 35.5325C22.0258 35.8259 21.9505 36.1486 21.9504 36.4758C21.9504 36.5116 21.9516 36.548 21.9531 36.5838H14.4361C14.3472 36.5827 14.2589 36.5992 14.1764 36.6325C14.0938 36.6658 14.0187 36.7151 13.9554 36.7776C13.8921 36.8402 13.8419 36.9146 13.8076 36.9967C13.7732 37.0788 13.7556 37.1669 13.7556 37.2559C13.7556 37.3449 13.7732 37.433 13.8076 37.5151C13.8419 37.5972 13.8921 37.6716 13.9554 37.7341C14.0187 37.7967 14.0938 37.846 14.1764 37.8793C14.2589 37.9125 14.3472 37.9291 14.4361 37.928H22.5157C22.8769 38.3162 23.3696 38.5562 23.898 38.6014C24.4264 38.6465 24.9527 38.4936 25.3745 38.1723L25.978 37.7105V43.0501H1.74552V2.03191H1.74583ZM5.35192 46.7815V44.3937H25.9781V46.7821L5.35192 46.7815ZM37.4954 49.9681H34.0545V42.7202H37.4954V49.9681ZM44.2274 49.5337C44.226 49.6483 44.1799 49.7579 44.0988 49.839C44.0178 49.9201 43.9083 49.9663 43.7937 49.9679H38.8393V42.0481C38.8393 41.8696 38.7686 41.6983 38.6426 41.5718C38.5166 41.4453 38.3456 41.3739 38.167 41.3731H33.383C33.204 41.3731 33.0323 41.4442 32.9057 41.5708C32.7791 41.6974 32.708 41.8691 32.708 42.0481V49.9683H27.758C27.6434 49.9667 27.5339 49.9204 27.4528 49.8393C27.3718 49.7581 27.3257 49.6485 27.3243 49.5339V36.6813L35.7753 30.2188L44.2271 36.6813V49.5337H44.2274ZM47.4703 37.2634C47.2978 37.2635 47.1301 37.2071 46.9926 37.1029L36.1837 28.8377C36.0665 28.7479 35.923 28.6993 35.7753 28.6993C35.6277 28.6993 35.4841 28.7479 35.367 28.8377L24.5578 37.1033C24.4756 37.1661 24.3819 37.2121 24.282 37.2387C24.182 37.2653 24.0778 37.272 23.9753 37.2583C23.8728 37.2446 23.774 37.2108 23.6846 37.159C23.5951 37.1071 23.5167 37.0381 23.4539 36.956C23.3911 36.8738 23.3451 36.7801 23.3185 36.6802C23.292 36.5802 23.2853 36.4761 23.299 36.3736C23.3127 36.2711 23.3464 36.1723 23.3983 36.0828C23.4501 35.9933 23.5191 35.915 23.6013 35.8521L35.21 26.9745C35.4995 26.7543 36.0546 26.7545 36.3428 26.9726L47.9517 35.8524C48.1169 35.9797 48.225 36.1671 48.2525 36.3738C48.2801 36.5805 48.2248 36.7897 48.0987 36.9558C48.0207 37.0475 47.9247 37.1221 47.8166 37.1751C47.7085 37.2281 47.5906 37.2582 47.4703 37.2636V37.2634ZM13.7642 13.9133C13.7642 13.7343 13.8353 13.5626 13.9619 13.436C14.0885 13.3094 14.2602 13.2383 14.4392 13.2383H29.5513C29.7191 13.2535 29.8752 13.3308 29.9888 13.4552C30.1025 13.5796 30.1655 13.742 30.1655 13.9105C30.1655 14.079 30.1025 14.2414 29.9888 14.3658C29.8752 14.4902 29.7191 14.5676 29.5513 14.5828H14.4363C14.2587 14.582 14.0886 14.5113 13.9628 14.386C13.837 14.2607 13.7656 14.0908 13.7642 13.9133ZM14.4392 16.5346H29.5513C29.7189 16.55 29.8747 16.6275 29.9881 16.7519C30.1015 16.8762 30.1644 17.0385 30.1644 17.2068C30.1644 17.3751 30.1015 17.5373 29.9881 17.6616C29.8747 17.786 29.7189 17.8635 29.5513 17.8789H14.4363C13.545 17.8752 13.5484 16.5346 14.4394 16.5346H14.4392ZM11.0642 19.1153H5.30161C5.12308 19.1153 4.95182 19.0446 4.82531 18.9186C4.69881 18.7926 4.62736 18.6217 4.62661 18.4432V12.6798C4.62661 12.5008 4.69772 12.3291 4.82431 12.2025C4.9509 12.0759 5.12259 12.0048 5.30161 12.0048H11.0646C11.2437 12.0048 11.4153 12.0759 11.5419 12.2025C11.6685 12.3291 11.7396 12.5008 11.7396 12.6798V18.4403C11.7396 18.6193 11.6685 18.791 11.5419 18.9176C11.4153 19.0442 11.2437 19.1153 11.0646 19.1153H11.0642ZM5.9764 13.3522H10.3948V17.7713H5.97355L5.9764 13.3522ZM13.7642 23.9357C13.7643 23.7567 13.8355 23.5851 13.9621 23.4585C14.0886 23.332 14.2602 23.2608 14.4392 23.2607H29.5513C29.7196 23.2753 29.8763 23.3524 29.9904 23.4769C30.1046 23.6014 30.1679 23.7642 30.1679 23.9331C30.1679 24.102 30.1046 24.2648 29.9904 24.3893C29.8763 24.5138 29.7196 24.591 29.5513 24.6056H14.4363C14.2586 24.6048 14.0884 24.5341 13.9626 24.4087C13.8368 24.2832 13.7655 24.1133 13.7642 23.9357ZM14.4392 26.5566H29.5511C29.6446 26.5479 29.7388 26.5589 29.8278 26.5888C29.9168 26.6186 29.9985 26.6667 30.0679 26.73C30.1372 26.7932 30.1926 26.8703 30.2305 26.9561C30.2684 27.042 30.288 27.1348 30.288 27.2287C30.288 27.3226 30.2684 27.4154 30.2305 27.5013C30.1926 27.5872 30.1372 27.6642 30.0679 27.7274C29.9985 27.7907 29.9168 27.8388 29.8278 27.8686C29.7388 27.8985 29.6446 27.9095 29.5511 27.9009H14.4363C13.545 27.8969 13.5486 26.5561 14.4394 26.5561L14.4392 26.5566ZM11.0642 29.1375H5.30161C5.12315 29.1375 4.95196 29.0668 4.82546 28.9409C4.69897 28.8151 4.62747 28.6442 4.62661 28.4658V22.7028C4.62661 22.5238 4.69772 22.3521 4.82431 22.2255C4.9509 22.099 5.12259 22.0278 5.30161 22.0278H11.0646C11.2437 22.0278 11.4153 22.099 11.5419 22.2255C11.6685 22.3521 11.7396 22.5238 11.7396 22.7028V28.4625C11.7396 28.6415 11.6685 28.8132 11.5419 28.9398C11.4153 29.0664 11.2437 29.1375 11.0646 29.1375H11.0642ZM5.9764 23.3749H10.3948V27.793H5.97355L5.9764 23.3746V23.3749ZM11.0644 39.1625H5.30161C5.12263 39.1624 4.95102 39.0912 4.82446 38.9646C4.69791 38.8381 4.62675 38.6665 4.62661 38.4875V32.7245C4.62661 32.5455 4.69772 32.3738 4.82431 32.2472C4.9509 32.1206 5.12259 32.0495 5.30161 32.0495H11.0646C11.2437 32.0495 11.4153 32.1206 11.5419 32.2472C11.6685 32.3738 11.7396 32.5455 11.7396 32.7245V38.4899C11.7389 38.6685 11.6675 38.8395 11.541 38.9655C11.4145 39.0914 11.2432 39.1622 11.0646 39.1622L11.0644 39.1625ZM5.9764 33.3997H10.3948V37.8181H5.97355L5.9764 33.3997Z" fill="#F08E35"/>
</svg>
