<svg width="51" height="51" viewBox="0 0 51 51" fill="none" xmlns="http://www.w3.org/2000/svg">
<path d="M38.5892 5.65255L25.8392 0.0714504C25.7319 0.0246466 25.6162 0.000488281 25.4992 0.000488281C25.3822 0.000488281 25.2664 0.0246466 25.1592 0.0714504L12.4092 5.65255C12.2577 5.71868 12.1287 5.82755 12.0381 5.96584C11.9475 6.10413 11.8993 6.26584 11.8992 6.43115V19.7762C11.9034 22.775 13.3442 25.5902 15.7752 27.348L24.5871 33.7034C24.8524 33.8955 25.1716 33.9988 25.4992 33.9988C25.8267 33.9988 26.1459 33.8955 26.4112 33.7034L35.2232 27.3488C36.4212 26.4824 37.3971 25.3446 38.0708 24.0285C38.7445 22.7124 39.0969 21.2555 39.0992 19.777V6.43115C39.0991 6.26584 39.0508 6.10413 38.9602 5.96584C38.8696 5.82755 38.7407 5.71868 38.5892 5.65255ZM37.3992 19.777C37.3972 20.9863 37.1089 22.178 36.5579 23.2544C36.0068 24.3309 35.2086 25.2615 34.2287 25.9701L25.4992 32.2661L16.7697 25.9701C15.7897 25.2615 14.9915 24.3309 14.4405 23.2544C13.8894 22.178 13.6011 20.9863 13.5992 19.777V6.98705L25.4992 1.77825L37.3992 6.98705V19.777Z" fill="#F08E35"/>
<path d="M25.1591 3.78251L15.8091 7.87611C15.6576 7.94224 15.5286 8.05111 15.438 8.1894C15.3475 8.32769 15.2992 8.48939 15.2991 8.65471V19.777C15.3004 20.7171 15.5244 21.6436 15.9529 22.4804C16.3814 23.3173 17.0021 24.0407 17.7641 24.5914L25.0018 29.8121C25.1466 29.9165 25.3206 29.9727 25.4991 29.9727C25.6776 29.9727 25.8516 29.9165 25.9963 29.8121L33.2341 24.5914C33.9961 24.0407 34.6168 23.3173 35.0453 22.4804C35.4737 21.6436 35.6978 20.7171 35.6991 19.777V8.65471C35.699 8.48939 35.6507 8.32769 35.5601 8.1894C35.4695 8.05111 35.3406 7.94224 35.1891 7.87611L25.8391 3.78251C25.7318 3.73571 25.6161 3.71155 25.4991 3.71155C25.3821 3.71155 25.2663 3.73571 25.1591 3.78251ZM33.9991 9.20976V19.777C33.9978 20.4479 33.8377 21.1089 33.5319 21.7061C33.2261 22.3032 32.7832 22.8195 32.2396 23.2127L25.4991 28.0747L18.7586 23.2127C18.2149 22.8195 17.7721 22.3032 17.4663 21.7061C17.1605 21.1089 17.0004 20.4479 16.9991 19.777V9.20976L25.4991 5.48931L33.9991 9.20976ZM7.04133 28.22L5.20278 23.9241C5.05906 23.5986 4.85263 23.3045 4.59528 23.0587C4.33792 22.813 4.03467 22.6203 3.70285 22.4917C3.37103 22.3631 3.01713 22.3012 2.66137 22.3094C2.3056 22.3176 1.95493 22.3957 1.62938 22.5395C1.30383 22.6832 1.00977 22.8896 0.764002 23.147C0.51823 23.4043 0.325555 23.7076 0.196979 24.0394C0.068402 24.3712 0.00644132 24.7251 0.0146344 25.0809C0.0228274 25.4366 0.101014 25.7873 0.244729 26.1129L3.57588 33.4407C4.02529 34.4327 4.65047 35.3352 5.42123 36.1046L10.6598 41.344C10.3648 41.6568 10.2008 42.0699 10.1991 42.5V49.3C10.1991 49.7509 10.3782 50.1833 10.697 50.5021C11.0158 50.8209 11.4482 51 11.8991 51H21.2491C21.6999 51 22.1324 50.8209 22.4512 50.5021C22.77 50.1833 22.9491 49.7509 22.9491 49.3V42.5C22.9491 42.0491 22.77 41.6167 22.4512 41.2979C22.1324 40.9791 21.6999 40.8 21.2491 40.8V39.2182C21.2751 37.2051 20.6184 35.2426 19.3859 33.6507C18.6633 32.7003 17.6785 31.982 16.5528 31.5843C14.7626 30.8321 13.1162 29.7756 11.6866 28.4614C11.0402 27.9291 10.24 27.6183 9.40376 27.5748C8.56751 27.5314 7.7394 27.7575 7.04133 28.22ZM21.2491 49.3H11.8991V42.5H21.2491V49.3ZM18.059 34.7123C19.0498 36.0032 19.5749 37.5911 19.5491 39.2182V40.8H12.5204L6.62313 34.9027C5.99679 34.2773 5.48855 33.5438 5.12288 32.7378L1.79173 25.4099C1.73257 25.2878 1.69862 25.155 1.6919 25.0194C1.68518 24.8839 1.70583 24.7483 1.75261 24.621C1.7994 24.4936 1.87136 24.3769 1.96422 24.2779C2.05707 24.1789 2.1689 24.0997 2.29305 24.0448C2.4172 23.99 2.55112 23.9608 2.68683 23.9588C2.82253 23.9569 2.95723 23.9823 3.0829 24.0335C3.20857 24.0848 3.32263 24.1608 3.41828 24.2571C3.51393 24.3533 3.58921 24.4679 3.63963 24.5939L5.54108 29.0284C6.046 30.2115 6.77379 31.2864 7.68478 32.1946L11.5676 36.0783C11.646 36.1594 11.7398 36.2242 11.8435 36.2687C11.9472 36.3133 12.0587 36.3367 12.1716 36.3377C12.2845 36.3387 12.3964 36.3172 12.5008 36.2745C12.6053 36.2317 12.7002 36.1686 12.78 36.0888C12.8598 36.009 12.9229 35.9141 12.9657 35.8096C13.0084 35.7052 13.0299 35.5932 13.0289 35.4804C13.028 35.3675 13.0045 35.256 12.96 35.1523C12.9154 35.0486 12.8507 34.9548 12.7695 34.8764L8.88668 30.9927C8.49624 30.6032 8.14519 30.1761 7.83863 29.7177C8.23501 29.4127 8.72314 29.2512 9.22323 29.2595C9.72331 29.2678 10.2058 29.4455 10.5918 29.7636C12.1807 31.2218 14.0172 32.3847 16.0148 33.1976C16.8287 33.4936 17.5389 34.0198 18.059 34.7123Z" fill="#F08E35"/>
<path d="M18.699 45.05H17.849C17.6236 45.05 17.4074 45.1396 17.248 45.299C17.0886 45.4584 16.999 45.6746 16.999 45.9C16.999 46.1255 17.0886 46.3417 17.248 46.5011C17.4074 46.6605 17.6236 46.75 17.849 46.75H18.699C18.9245 46.75 19.1407 46.6605 19.3001 46.5011C19.4595 46.3417 19.549 46.1255 19.549 45.9C19.549 45.6746 19.4595 45.4584 19.3001 45.299C19.1407 45.1396 18.9245 45.05 18.699 45.05ZM47.4222 33.4407L50.7534 26.1129C50.9039 25.7864 50.9879 25.4332 51.0005 25.0738C51.0131 24.7145 50.9542 24.3563 50.827 24.02C50.6998 23.6838 50.507 23.3761 50.2597 23.1151C50.0125 22.8541 49.7158 22.6449 49.3869 22.4997C49.058 22.3545 48.7035 22.2761 48.344 22.2693C47.9846 22.2624 47.6274 22.3272 47.2932 22.4598C46.959 22.5923 46.6545 22.7901 46.3975 23.0415C46.1405 23.2929 45.9361 23.5929 45.7962 23.9241L43.9619 28.2039C43.2613 27.7436 42.4317 27.52 41.5947 27.5659C40.7578 27.6118 39.9576 27.9248 39.3115 28.4589C37.8819 29.773 36.2355 30.8296 34.4453 31.5818C33.3196 31.9795 32.3348 32.6977 31.6122 33.6481C30.3792 35.2407 29.7224 37.2042 29.749 39.2182V40.8C29.2982 40.8 28.8658 40.9791 28.5469 41.2979C28.2281 41.6167 28.049 42.0491 28.049 42.5V49.3C28.049 49.7509 28.2281 50.1833 28.5469 50.5021C28.8658 50.8209 29.2982 51 29.749 51H39.099C39.5499 51 39.9823 50.8209 40.3011 50.5021C40.6199 50.1833 40.799 49.7509 40.799 49.3V42.5C40.7981 42.0701 40.6334 41.6567 40.3383 41.344L45.5769 36.1046C46.3476 35.3352 46.9728 34.4327 47.4222 33.4407ZM39.099 49.3H29.749V42.5H39.099V49.3ZM38.4777 40.8H31.449V39.2182C31.4234 37.5914 31.9485 36.0038 32.9391 34.7132C33.458 34.0212 34.1667 33.4947 34.9791 33.1976C36.977 32.385 38.8138 31.2221 40.4029 29.7636C40.7884 29.4432 41.2715 29.2633 41.7727 29.2536C42.2739 29.2439 42.7635 29.4048 43.1612 29.7101C42.8537 30.1719 42.5009 30.6018 42.108 30.9936L38.2252 34.8772C38.0704 35.0375 37.9847 35.2522 37.9867 35.4751C37.9886 35.698 38.078 35.9112 38.2356 36.0688C38.3932 36.2264 38.6064 36.3158 38.8292 36.3177C39.0521 36.3196 39.2668 36.2339 39.4271 36.0791L43.3099 32.1955C44.2209 31.2873 44.9487 30.2123 45.4536 29.0292L47.3551 24.5939C47.427 24.4252 47.5436 24.2793 47.6923 24.1719C47.841 24.0645 48.0162 23.9997 48.199 23.9844C48.3817 23.9691 48.5652 24.0039 48.7297 24.0851C48.8942 24.1663 49.0334 24.2908 49.1324 24.4452C49.3194 24.7342 49.3449 25.098 49.203 25.4108L45.8718 32.7386C45.5061 33.5447 44.9979 34.2781 44.3716 34.9036L38.4777 40.8Z" fill="#F08E35"/>
<path d="M33.1491 45.0501H32.2991C32.0736 45.0501 31.8574 45.1396 31.698 45.299C31.5386 45.4584 31.4491 45.6746 31.4491 45.9001C31.4491 46.1255 31.5386 46.3417 31.698 46.5011C31.8574 46.6605 32.0736 46.7501 32.2991 46.7501H33.1491C33.3745 46.7501 33.5907 46.6605 33.7501 46.5011C33.9095 46.3417 33.9991 46.1255 33.9991 45.9001C33.9991 45.6746 33.9095 45.4584 33.7501 45.299C33.5907 45.1396 33.3745 45.0501 33.1491 45.0501ZM20.9091 18.0201C20.7287 17.8848 20.502 17.8267 20.2789 17.8586C20.0557 17.8905 19.8543 18.0097 19.7191 18.1901C19.5838 18.3704 19.5257 18.5971 19.5576 18.8203C19.5895 19.0434 19.7087 19.2448 19.8891 19.3801L23.2891 21.9301C23.3815 21.9994 23.4872 22.0492 23.5995 22.0763C23.7119 22.1035 23.8286 22.1074 23.9425 22.0879C24.0564 22.0685 24.1652 22.0259 24.2621 21.963C24.3591 21.9 24.4421 21.818 24.5063 21.7218L31.3063 11.5218C31.4314 11.3342 31.4769 11.1047 31.4327 10.8836C31.3886 10.6625 31.2584 10.468 31.0708 10.3429C30.8833 10.2177 30.6537 10.1723 30.4326 10.2164C30.2115 10.2606 30.017 10.3907 29.8919 10.5783L23.59 20.0312L20.9091 18.0201Z" fill="#F08E35"/>
</svg>
