<svg width="22" height="22" viewBox="0 0 22 22" fill="none" xmlns="http://www.w3.org/2000/svg">
<path d="M9.62492 18.5743H2.70409C2.65546 18.5743 2.60883 18.555 2.57445 18.5206C2.54007 18.4863 2.52075 18.4396 2.52075 18.391V17.0618C2.52075 16.3001 3.06434 15.6291 3.90217 15.0589C5.39817 14.0378 7.81909 13.3943 10.5416 13.3943C10.9908 13.3943 11.4317 13.4126 11.8625 13.4465C11.9536 13.4557 12.0456 13.4466 12.1331 13.4197C12.2206 13.3929 12.3018 13.3488 12.3721 13.2901C12.4424 13.2315 12.5002 13.1593 12.5422 13.078C12.5842 12.9967 12.6096 12.9078 12.6168 12.8166C12.624 12.7253 12.6129 12.6335 12.5841 12.5466C12.5554 12.4597 12.5096 12.3794 12.4494 12.3105C12.3892 12.2415 12.3159 12.1852 12.2337 12.145C12.1515 12.1047 12.0621 12.0813 11.9707 12.0761C11.4953 12.038 11.0185 12.019 10.5416 12.0193C7.49642 12.0193 4.8005 12.781 3.12667 13.9223C1.84975 14.7931 1.14575 15.8995 1.14575 17.0609V18.391C1.14599 18.8041 1.31028 19.2003 1.6025 19.4923C1.89472 19.7844 2.29095 19.9484 2.70409 19.9484L9.62492 19.9493C9.80726 19.9493 9.98212 19.8769 10.1111 19.748C10.24 19.619 10.3124 19.4442 10.3124 19.2618C10.3124 19.0795 10.24 18.9046 10.1111 18.7757C9.98212 18.6468 9.80726 18.5743 9.62492 18.5743ZM10.5416 1.14575C7.75859 1.14575 5.49992 3.40442 5.49992 6.18742C5.49992 8.97042 7.75859 11.2291 10.5416 11.2291C13.3246 11.2291 15.5833 8.97042 15.5833 6.18742C15.5833 3.40442 13.3246 1.14575 10.5416 1.14575ZM10.5416 2.52075C12.5656 2.52075 14.2083 4.16342 14.2083 6.18742C14.2083 8.21142 12.5656 9.85409 10.5416 9.85409C8.51759 9.85409 6.87492 8.21142 6.87492 6.18742C6.87492 4.16342 8.51759 2.52075 10.5416 2.52075Z" fill="#F08E35"/>
<path d="M16.6394 18.524C17.2593 18.6179 17.8928 18.5515 18.4797 18.331C19.0666 18.1105 19.5872 17.7434 19.9919 17.2645C20.3966 16.7857 20.6718 16.2112 20.7914 15.5958C20.9109 14.9803 20.8708 14.3445 20.6749 13.749C20.4789 13.1535 20.1336 12.6181 19.672 12.194C19.2103 11.7698 18.6477 11.471 18.0378 11.326C17.4278 11.181 16.7909 11.1948 16.1878 11.3659C15.5847 11.537 15.0354 11.8598 14.5925 12.3035C14.1861 12.7094 13.8808 13.2053 13.7014 13.751C13.5219 14.2967 13.4733 14.8769 13.5594 15.4449L11.4309 17.5725C11.3669 17.6363 11.3162 17.7122 11.2816 17.7957C11.247 17.8793 11.2292 17.9688 11.2292 18.0592V20.1666C11.2292 20.5461 11.5372 20.8541 11.9167 20.8541H14.0242C14.1146 20.8542 14.2041 20.8364 14.2876 20.8018C14.3711 20.7672 14.447 20.7164 14.5109 20.6525L16.6394 18.524ZM16.5917 17.1123C16.4754 17.0813 16.3529 17.0814 16.2366 17.1126C16.1203 17.1438 16.0142 17.205 15.929 17.2901L13.74 19.4791H12.6042V18.3434L14.7932 16.1544C14.8783 16.0692 14.9396 15.9631 14.9708 15.8468C15.002 15.7305 15.0021 15.608 14.9711 15.4916C14.8416 15.0042 14.8763 14.4877 15.0698 14.022C15.2632 13.5562 15.6047 13.1672 16.0414 12.9149C16.4781 12.6626 16.9857 12.5612 17.4858 12.6263C17.986 12.6915 18.4507 12.9195 18.8082 13.2751C19.1639 13.6327 19.3919 14.0974 19.457 14.5975C19.5221 15.0976 19.4207 15.6053 19.1685 16.042C18.9162 16.4787 18.5271 16.8201 18.0614 17.0136C17.5957 17.207 17.0792 17.2417 16.5917 17.1123Z" fill="#F08E35"/>
<path d="M16.4835 15.5999C16.3877 15.5083 16.3111 15.3985 16.2583 15.2769C16.2055 15.1553 16.1776 15.0244 16.1761 14.8918C16.1746 14.7593 16.1997 14.6277 16.2498 14.505C16.2999 14.3822 16.374 14.2708 16.4678 14.1771C16.5616 14.0834 16.6732 14.0094 16.796 13.9595C16.9188 13.9095 17.0503 13.8847 17.1829 13.8863C17.3155 13.8879 17.4464 13.9161 17.5679 13.969C17.6894 14.022 17.7992 14.0987 17.8906 14.1947C18.0698 14.3827 18.1683 14.6334 18.1651 14.8931C18.1619 15.1528 18.0572 15.401 17.8734 15.5845C17.6896 15.7681 17.4413 15.8725 17.1816 15.8753C16.9219 15.8782 16.6713 15.7794 16.4835 15.5999Z" fill="#F08E35"/>
</svg>
