<svg width="40" height="40" viewBox="0 0 40 40" fill="none" xmlns="http://www.w3.org/2000/svg">
<g clip-path="url(#clip0_260_2140)">
<path d="M21.9551 13.7311C17.9699 9.34735 11.2615 9.08176 6.94428 13.0004C6.74502 13.1998 6.47942 13.3989 6.28008 13.6646L6.0144 14.1296L6.3465 14.5282L6.41292 14.5944C10.3317 18.9117 17.04 19.1776 21.3573 15.2586C21.5565 15.0595 21.8221 14.8603 22.0215 14.5944L22.3536 14.1297L21.9551 13.7311ZM12.7893 14.1296C12.7893 13.399 13.387 12.8012 14.1177 12.8012C14.848 12.8012 15.446 13.399 15.446 14.1296C15.446 14.8602 14.848 15.458 14.1177 15.458C13.387 15.458 12.7893 14.8603 12.7893 14.1296ZM13.254 11.6055C11.8592 12.0706 11.1288 13.5319 11.5271 14.9265C11.793 15.7237 12.3907 16.3879 13.254 16.6534C11.195 16.4543 9.20245 15.5907 7.67481 14.1296C9.26887 12.6683 11.195 11.805 13.254 11.6055ZM14.9809 16.6534C16.3759 16.1887 17.1065 14.7274 16.708 13.3324C16.4423 12.5356 15.8443 11.8715 14.981 11.6055C17.04 11.805 19.0326 12.6682 20.5602 14.1297C18.9662 15.5907 17.04 16.4544 14.981 16.6535L14.9809 16.6534Z" fill="#F08E35"/>
<path d="M13.5897 3.07684C7.77652 3.07684 3.0769 8.12058 3.0769 14.3589C3.0769 20.5972 8.41755 25.1734 14.2308 25.1734C20.0437 25.1734 25.0829 20.5971 25.0829 14.3589C25.0829 8.12067 19.4027 3.07684 13.5897 3.07684ZM14.2308 23.8461C9.09787 23.8461 4.31371 19.867 4.31371 14.3589C4.31371 8.85035 8.45684 4.40414 13.5897 4.40414C18.7224 4.40414 23.8461 8.85035 23.8461 14.3589C23.8461 19.867 19.3634 23.8461 14.2308 23.8461Z" fill="#F08E35"/>
<path d="M32.2501 28.0113C31.8516 27.6127 31.3867 27.4135 30.8553 27.4135H30.3904L25.6081 22.0335C29.9918 15.6572 28.464 6.95616 22.088 2.50623C15.7117 -1.94395 6.94422 -0.283467 2.56045 6.02637C-1.82298 12.3362 -0.295415 21.1037 6.08093 25.5537C11.1288 29.074 17.9034 28.8746 22.7522 25.0223L27.4016 30.2695V30.801C27.4016 31.3322 27.6007 31.8634 27.9993 32.1955L34.9069 39.1034C36.1022 40.2989 37.9622 40.2989 39.1577 39.1034C40.3533 37.9077 40.3533 36.0481 39.1577 34.8523L32.2501 28.0113ZM1.49799 14.1296C1.49799 7.15559 7.14364 1.50994 14.1177 1.50994C21.0917 1.50994 26.7374 7.15559 26.7374 14.1296C26.7374 21.1037 21.0917 26.7493 14.1177 26.7493C7.14364 26.7493 1.49799 21.1037 1.49799 14.1296ZM23.7485 24.2252C24.0806 23.8931 24.4789 23.4948 24.7448 23.1627L29.1282 28.0778L28.0658 29.0741L23.7485 24.2252ZM37.0324 38.7049C36.5673 38.7049 36.1688 38.5054 35.8367 38.2398L28.929 31.3322C28.7962 31.1993 28.7299 31.0666 28.7299 30.8672V30.3359L30.324 28.7419H30.8552C31.0546 28.7419 31.1873 28.8084 31.3203 28.9411L38.2278 35.8487C38.892 36.5129 38.892 37.5756 38.2278 38.2398C37.8957 38.5055 37.4306 38.7049 37.0324 38.7049Z" fill="#F08E35"/>
</g>
<defs>
<clipPath id="clip0_260_2140">
<rect width="40" height="40" fill="white"/>
</clipPath>
</defs>
</svg>
