<svg width="40" height="40" viewBox="0 0 40 40" fill="none" xmlns="http://www.w3.org/2000/svg">
<g clip-path="url(#clip0_260_2145)">
<path d="M39.8011 24.343C39.6833 24.0571 39.4832 23.8127 39.2261 23.641C38.969 23.4692 38.6667 23.3778 38.3575 23.3784L33.5895 23.3792V1.95312C33.5895 0.919297 32.7484 0.078125 31.7145 0.078125H18.0826C17.0488 0.078125 16.2076 0.919297 16.2076 1.95312V7.25312C15.2353 7.02731 14.2404 6.91355 13.2422 6.91406C6.02656 6.91406 0.15625 12.7844 0.15625 20C0.15625 27.2156 6.02656 33.0859 13.2422 33.0859C14.4984 33.0859 15.7137 32.9076 16.8645 32.5755L23.7938 39.5048C23.9385 39.6503 24.1107 39.7657 24.3003 39.8443C24.49 39.9228 24.6933 39.963 24.8986 39.9624C25.3159 39.9624 25.7084 39.7999 26.0034 39.5048L39.4623 26.0459C39.6814 25.8277 39.8306 25.5493 39.8909 25.246C39.9513 24.9428 39.92 24.6285 39.8011 24.343V24.343ZM1.40625 20C1.40625 13.4737 6.71578 8.16406 13.2422 8.16406C19.7686 8.16406 25.0781 13.4737 25.0781 20C25.0781 26.5263 19.7686 31.8359 13.2422 31.8359C6.71578 31.8359 1.40625 26.5263 1.40625 20ZM38.5785 25.1619L25.1195 38.6209C25.0905 38.65 25.0561 38.673 25.0182 38.6887C24.9803 38.7044 24.9396 38.7124 24.8986 38.7123C24.8502 38.7123 24.7572 38.7005 24.6776 38.6209L18.176 32.1193C22.9531 30.1675 26.3281 25.4709 26.3281 20C26.3281 14.2586 22.6113 9.36914 17.4576 7.61078V1.95312C17.4576 1.60852 17.738 1.32812 18.0826 1.32812H31.7146C32.0591 1.32812 32.3396 1.60852 32.3396 1.95312V23.3784C32.3396 24.0677 32.9003 24.6284 33.5896 24.6284H38.3576C38.5459 24.6284 38.6222 24.7634 38.6463 24.8214C38.6702 24.8794 38.7117 25.0287 38.5785 25.1619Z" fill="#F08E35"/>
<path d="M12.682 16.1517H13.8025C14.5322 16.1517 15.1259 16.7454 15.1259 17.4751C15.1259 17.6409 15.1918 17.7999 15.309 17.9171C15.4262 18.0343 15.5851 18.1001 15.7509 18.1001C15.9167 18.1001 16.0756 18.0343 16.1929 17.9171C16.3101 17.7999 16.3759 17.6409 16.3759 17.4751C16.3759 16.0778 15.2563 14.938 13.8672 14.9033V14.3047C13.8672 14.139 13.8014 13.98 13.6842 13.8628C13.567 13.7456 13.408 13.6797 13.2422 13.6797C13.0765 13.6797 12.9175 13.7456 12.8003 13.8628C12.6831 13.98 12.6172 14.139 12.6172 14.3047V14.9033C11.2282 14.938 10.1086 16.0778 10.1086 17.4751V18.0516C10.1086 19.4706 11.263 20.625 12.682 20.625H13.8025C14.5322 20.625 15.1259 21.2187 15.1259 21.9484V22.5248C15.1259 23.2546 14.5322 23.8483 13.8025 23.8483H12.6821C11.9524 23.8483 11.3586 23.2546 11.3586 22.5248V22.4709C11.3586 22.3052 11.2928 22.1462 11.1756 22.029C11.0584 21.9118 10.8994 21.8459 10.7336 21.8459C10.5679 21.8459 10.4089 21.9118 10.2917 22.029C10.1745 22.1462 10.1086 22.3052 10.1086 22.4709V22.5248C10.1086 23.9222 11.2283 25.062 12.6173 25.0966V25.6952C12.6173 25.861 12.6832 26.0199 12.8004 26.1372C12.9176 26.2544 13.0766 26.3202 13.2423 26.3202C13.4081 26.3202 13.567 26.2544 13.6843 26.1372C13.8015 26.0199 13.8673 25.861 13.8673 25.6952V25.0966C15.2564 25.062 16.3759 23.9222 16.3759 22.5248V21.9483C16.3759 20.5294 15.2215 19.375 13.8025 19.375H12.6821C11.9524 19.375 11.3586 18.7813 11.3586 18.0515V17.4751C11.3586 16.7454 11.9524 16.1517 12.6821 16.1517H12.682Z" fill="#F08E35"/>
<path d="M13.2422 10.204C7.84066 10.204 3.44629 14.5986 3.44629 20C3.44629 25.4014 7.84074 29.7959 13.2422 29.7959C18.6437 29.7959 23.0382 25.4014 23.0382 20C23.0382 14.5986 18.6437 10.204 13.2422 10.204ZM13.2422 28.5459C8.53004 28.5459 4.69629 24.7122 4.69629 20C4.69629 15.2878 8.53004 11.454 13.2422 11.454C17.9544 11.454 21.7882 15.2878 21.7882 20C21.7882 24.7122 17.9544 28.5459 13.2422 28.5459Z" fill="#F08E35"/>
</g>
<defs>
<clipPath id="clip0_260_2145">
<rect width="40" height="40" fill="white"/>
</clipPath>
</defs>
</svg>
