<svg width="40" height="40" viewBox="0 0 40 40" fill="none" xmlns="http://www.w3.org/2000/svg">
<g clip-path="url(#clip0_260_2153)">
<path d="M33.8125 20.625V19.375C34.1575 19.375 34.4375 19.0952 34.4375 18.75V15C34.4375 14.6548 34.1575 14.375 33.8125 14.375H30.4375L30.3164 13.9055C30.0401 12.8317 29.6107 11.8032 29.0413 10.8518L28.7913 10.4336L31.1875 8.03319C31.4287 7.7915 31.4287 7.39987 31.1875 7.15819L28.5332 4.5C28.4153 4.38752 28.2585 4.32476 28.0956 4.32476C27.9326 4.32476 27.7759 4.38752 27.6579 4.5L25.2573 6.90063L24.8394 6.65063C23.8866 6.08101 22.8568 5.6514 21.7817 5.375L21.3125 5.25294V1.875C21.3125 1.52981 21.0327 1.25 20.6875 1.25H16.9375C16.5923 1.25 16.3125 1.52981 16.3125 1.875V5.25L15.843 5.37131C14.7692 5.64754 13.7406 6.07665 12.7888 6.6455L12.3706 6.89575L9.97062 4.5C9.85256 4.38664 9.69523 4.32334 9.53156 4.32334C9.36789 4.32334 9.21056 4.38664 9.0925 4.5L6.4375 7.15431C6.37968 7.21197 6.33381 7.28046 6.30251 7.35587C6.27121 7.43128 6.2551 7.51213 6.2551 7.59378C6.2551 7.67543 6.27121 7.75628 6.30251 7.83169C6.33381 7.9071 6.37968 7.9756 6.4375 8.03325L8.83813 10.4336L8.58813 10.8518C8.01878 11.8033 7.58941 12.8317 7.31325 13.9056L7.19063 14.375H3.8125C3.46731 14.375 3.1875 14.6548 3.1875 15V18.75C3.1875 19.0952 3.46731 19.375 3.8125 19.375V20.625C2.77713 20.625 1.9375 19.7854 1.9375 18.75V15C1.9375 13.9646 2.77713 13.125 3.8125 13.125H6.23069C6.48846 12.2608 6.83709 11.4264 7.27075 10.6357L5.552 8.917C5.20044 8.56619 5.00294 8.09013 5.00294 7.59375C5.00294 7.09737 5.20044 6.62131 5.552 6.27075L8.20825 3.6145C8.94825 2.90625 10.115 2.90625 10.855 3.6145L12.5732 5.3325C13.364 4.89931 14.1984 4.55112 15.0625 4.29375V1.875C15.0625 0.839625 15.9021 0 16.9375 0H20.6875C21.7229 0 22.5625 0.839625 22.5625 1.875V4.29375C23.4266 4.55137 24.261 4.89982 25.0518 5.33325L26.7705 3.6145C27.5107 2.90625 28.6772 2.90625 29.4175 3.6145L32.0732 6.27C32.2472 6.44363 32.3852 6.64985 32.4793 6.87687C32.5734 7.10389 32.6218 7.34724 32.6218 7.593C32.6219 7.8388 32.5735 8.0822 32.4793 8.30926C32.3852 8.53632 32.2472 8.74259 32.0732 8.91625L30.3545 10.635C30.7878 11.4261 31.1363 12.2607 31.3943 13.125H33.8125C34.8479 13.125 35.6875 13.9646 35.6875 15V18.75C35.6875 19.7854 34.8479 20.625 33.8125 20.625Z" fill="#F08E35"/>
<path d="M27.5625 16.875H26.3125C26.3125 12.7329 22.9546 9.375 18.8125 9.375C14.6704 9.375 11.3125 12.7329 11.3125 16.875H10.0625C10.0625 12.0425 13.98 8.125 18.8125 8.125C23.6448 8.125 27.5625 12.0425 27.5625 16.875Z" fill="#F08E35"/>
<path d="M18.8125 21.875C16.7414 21.875 15.0625 20.1958 15.0625 18.125C15.0625 16.0539 16.7414 14.375 18.8125 14.375C20.8838 14.375 22.5625 16.0539 22.5625 18.125C22.5603 20.1953 20.8828 21.8728 18.8125 21.875ZM18.8125 15.625C17.4319 15.625 16.3125 16.7444 16.3125 18.125C16.3125 19.5056 17.4319 20.625 18.8125 20.625C20.1931 20.625 21.3125 19.5056 21.3125 18.125C21.3125 16.7444 20.1931 15.625 18.8125 15.625ZM29.4375 24.375C27.3664 24.375 25.6875 22.6958 25.6875 20.625C25.6875 18.5539 27.3664 16.875 29.4375 16.875C31.5086 16.875 33.1875 18.5539 33.1875 20.625C33.1853 22.6953 31.5078 24.3728 29.4375 24.375ZM29.4375 18.125C28.0569 18.125 26.9375 19.2444 26.9375 20.625C26.9375 22.0056 28.0569 23.125 29.4375 23.125C30.8181 23.125 31.9375 22.0056 31.9375 20.625C31.9375 19.2444 30.8181 18.125 29.4375 18.125ZM8.1875 24.375C6.11644 24.375 4.4375 22.6958 4.4375 20.625C4.4375 18.5539 6.11644 16.875 8.1875 16.875C10.2587 16.875 11.9375 18.5539 11.9375 20.625C11.9353 22.6953 10.2578 24.3728 8.1875 24.375ZM8.1875 18.125C6.80687 18.125 5.6875 19.2444 5.6875 20.625C5.6875 22.0056 6.80687 23.125 8.1875 23.125C9.56812 23.125 10.6875 22.0056 10.6875 20.625C10.6875 19.2444 9.56812 18.125 8.1875 18.125Z" fill="#F08E35"/>
<path d="M35.1035 25.9785C34.1721 25.3382 33.0677 24.9969 31.9375 25H26.9375C26.6334 25.0027 26.3301 25.0302 26.0305 25.0822C25.6305 24.4568 25.1103 23.917 24.5 23.4941C24.4085 23.4249 24.3122 23.3624 24.2119 23.3068C23.3375 22.7775 22.3346 22.4984 21.3125 22.5H16.3125C15.3722 22.4967 14.4464 22.7318 13.6216 23.1834C12.7969 23.635 12.1 24.2883 11.5962 25.0822C11.2961 25.0302 10.9921 25.0027 10.6875 25H5.6875C4.55796 24.9969 3.45426 25.3378 2.52319 25.9773C1.76542 26.4929 1.14512 27.1858 0.716265 27.9959C0.287405 28.8059 0.0629743 29.7084 0.0625 30.625V33.125C0.0646875 34.8315 1.05762 36.3813 2.60769 37.0962C3.17985 37.3657 3.80507 37.5036 4.4375 37.5H10.6875V36.25H5.0625V29.375H3.8125V36.1872C3.57723 36.14 3.34865 36.0641 3.13188 35.9612C2.58968 35.7112 2.1303 35.3113 1.80793 34.8088C1.48557 34.3063 1.31366 33.722 1.3125 33.125V30.625C1.31326 29.9117 1.48822 29.2094 1.82218 28.5791C2.15614 27.9489 2.63899 27.4097 3.22875 27.0085C3.95234 26.512 4.80992 26.2474 5.6875 26.25H10.6875C10.7976 26.25 10.9037 26.2617 11.0112 26.269C10.7998 26.8651 10.6903 27.4925 10.6875 28.125V34.375C10.6897 36.1001 12.0876 37.4978 13.8125 37.5H15.6875V27.5H14.4375V36.25H13.8125C12.7771 36.25 11.9375 35.4103 11.9375 34.375V28.125C11.9375 25.7085 13.8965 23.75 16.3125 23.75H21.3125C22.1166 23.7505 22.9049 23.9731 23.5906 24.3931C23.654 24.4277 23.7149 24.4667 23.7729 24.5097C24.3585 24.9107 24.8392 25.4466 25.1743 26.0722C25.5111 26.704 25.6874 27.409 25.6875 28.125V34.375C25.6875 35.4103 24.8479 36.25 23.8125 36.25H23.1875V27.5H21.9375V37.5H23.8125C25.5376 37.4978 26.9353 36.1001 26.9375 34.375V28.125C26.9346 27.4926 26.8253 26.8652 26.6143 26.269C26.7219 26.2617 26.8281 26.25 26.9375 26.25H31.9375C32.8158 26.2476 33.6739 26.5126 34.3979 27.0097C34.9872 27.411 35.4695 27.9501 35.8032 28.5801C36.1368 29.2101 36.3117 29.9121 36.3125 30.625V33.125C36.3114 33.724 36.1384 34.3101 35.8141 34.8137C35.4897 35.3173 35.0276 35.7173 34.4827 35.966C34.2692 36.067 34.0441 36.1414 33.8125 36.1873V29.375H32.5625V36.25H26.9375V37.5H33.1875C33.8161 37.5039 34.4376 37.3676 35.0069 37.101C36.562 36.3884 37.56 34.8357 37.5625 33.125V30.625C37.562 29.7088 37.3378 28.8066 36.9092 27.9968C36.4807 27.187 35.8608 26.4941 35.1035 25.9785Z" fill="#F08E35"/>
<path d="M16.3125 36.25H21.3125V37.5H16.3125V36.25Z" fill="#F08E35"/>
</g>
<defs>
<clipPath id="clip0_260_2153">
<rect width="40" height="40" fill="white"/>
</clipPath>
</defs>
</svg>
