<svg width="40" height="40" viewBox="0 0 40 40" fill="none" xmlns="http://www.w3.org/2000/svg">
<g clip-path="url(#clip0_159_924)">
<path d="M8.66839 30.5532L3.89466 32.2838C2.91077 32.643 2.06074 33.2954 1.4593 34.1529C0.85785 35.0104 0.533931 36.0318 0.53125 37.0792V39.2842C0.53125 39.4741 0.606663 39.6561 0.7409 39.7904C0.875138 39.9246 1.0572 40 1.24704 40H29.426C29.6158 40 29.7979 39.9246 29.9321 39.7904C30.0664 39.6561 30.1418 39.4741 30.1418 39.2842V37.0792C30.1391 36.0317 29.8151 35.0103 29.2136 34.1528C28.612 33.2953 27.7619 32.6429 26.778 32.2838L22.0075 30.5556L20.1125 29.4136V27.7366C21.465 26.9189 22.5829 25.7652 23.3576 24.3877C24.1324 23.0102 24.5377 21.4556 24.534 19.8752V18.5405H24.595C25.2898 18.5415 25.9692 18.3355 26.5465 17.9488C27.1237 17.562 27.5727 17.012 27.836 16.369C28.0993 15.726 28.1651 15.0191 28.025 14.3385C27.8848 13.658 27.5451 13.0346 27.0491 12.5479V7.43879C27.0474 5.77744 26.3867 4.18462 25.2121 3.00979C24.0374 1.83496 22.4446 1.17407 20.7833 1.17212H9.53511C8.78843 1.17281 8.0642 1.42748 7.48143 1.89429C6.89866 2.3611 6.49203 3.01227 6.32836 3.74079C5.43557 3.89284 4.62527 4.35558 4.04064 5.04724C3.45602 5.7389 3.1347 6.61495 3.13347 7.52059V13.1651C2.76897 13.7225 2.57442 14.3738 2.57351 15.0397C2.57459 15.9679 2.94383 16.8578 3.60022 17.5141C4.25661 18.1704 5.14654 18.5396 6.07476 18.5405H6.13612V19.8764C6.13557 20.4701 6.19201 21.0625 6.30463 21.6454C6.5488 22.9024 7.05382 24.0941 7.78709 25.1438C8.52037 26.1935 9.46559 27.0778 10.5618 27.7395V29.4136L8.66839 30.5532ZM14.6193 38.5676H1.96406V37.0784C1.96595 36.3246 2.19918 35.5896 2.63222 34.9727C3.06526 34.3557 3.67725 33.8866 4.38549 33.6286L8.56899 32.1128L10.6141 37.1712C10.6544 37.271 10.7168 37.3605 10.7965 37.4328C10.8763 37.5051 10.9714 37.5585 11.0747 37.5888C11.1351 37.6062 11.1975 37.6154 11.2604 37.6162C11.2661 37.6162 11.2718 37.6187 11.2776 37.6187C11.2833 37.6187 11.2988 37.6142 11.3099 37.6134C11.3603 37.6112 11.4103 37.6037 11.4592 37.5909C11.4772 37.586 11.4943 37.5819 11.5115 37.5761C11.5742 37.5552 11.6336 37.5258 11.6882 37.4886L14.6193 35.4386V38.5676ZM13.1161 30.7062C13.1022 30.6918 13.0879 30.6779 13.0732 30.6653L11.9934 29.5323V28.4483C14.1443 29.2838 16.53 29.2838 18.6809 28.4483V29.5331L18.112 30.1311C18.0956 30.1454 18.0796 30.1605 18.0649 30.1761L15.3351 33.0282L13.1161 30.7062ZM22.1049 32.1132L26.29 33.6266C26.9979 33.8851 27.6094 34.3544 28.0422 34.9714C28.475 35.5883 28.7081 36.3231 28.7102 37.0767V38.566H16.0509V35.4369L18.9819 37.487C19.0363 37.524 19.0955 37.5533 19.1578 37.5741C19.1762 37.5802 19.1942 37.5843 19.2126 37.5892C19.2598 37.6015 19.308 37.6089 19.3566 37.6113C19.3689 37.6113 19.3803 37.617 19.3926 37.617C19.4049 37.617 19.4053 37.6142 19.4118 37.6142C19.474 37.6134 19.5357 37.6045 19.5955 37.5876C19.6987 37.5571 19.7938 37.5038 19.8735 37.4315C19.9533 37.3592 20.0157 37.2698 20.056 37.17L22.1049 32.1132ZM20.807 31.5038L19.067 35.7985L16.4296 33.9542L19.0572 31.2072C19.0736 31.1925 19.0899 31.1774 19.1055 31.161L19.5194 30.7295L20.807 31.5038ZM26.6651 15.0385C26.6632 15.587 26.4446 16.1125 26.0568 16.5004C25.6689 16.8882 25.1435 17.107 24.595 17.109H24.534V12.9688H24.595C25.1432 12.9711 25.6684 13.1898 26.0561 13.5775C26.4438 13.9651 26.6627 14.4902 26.6651 15.0385ZM6.13612 17.109H6.07476C5.52609 17.1084 5.00004 16.8902 4.61203 16.5023C4.22402 16.1144 4.00575 15.5884 4.0051 15.0397C4.00286 14.5887 4.15111 14.1498 4.42639 13.7926C4.48359 13.7153 4.54663 13.6426 4.61495 13.575C4.80566 13.3819 5.03297 13.2289 5.28357 13.1248C5.53416 13.0207 5.803 12.9677 6.07435 12.9688H6.13571L6.13612 17.109ZM6.285 10.5077C6.1863 10.815 6.13607 11.1359 6.13612 11.4587V11.5405H6.07476C5.55197 11.5406 5.03593 11.6586 4.56505 11.8857V7.52059C4.56571 6.92434 4.78791 6.3496 5.18851 5.90796C5.5891 5.46632 6.13952 5.18929 6.73288 5.13066C6.84065 5.16723 6.95558 5.17761 7.06815 5.16094C7.18073 5.14426 7.28772 5.10102 7.38026 5.03478C7.4728 4.96854 7.54823 4.88122 7.60032 4.78003C7.6524 4.67885 7.67964 4.56671 7.67977 4.45291C7.68097 3.96213 7.87674 3.49185 8.22415 3.14519C8.57157 2.79854 9.04228 2.60381 9.53306 2.60371H20.7812C22.0634 2.60468 23.2928 3.11436 24.1995 4.02087C25.1063 4.92738 25.6163 6.15663 25.6176 7.43879V11.6926C25.2864 11.5899 24.9417 11.5371 24.595 11.536H24.534V11.4542C24.5346 11.0054 24.4365 10.5619 24.2466 10.1553C24.0567 9.74861 23.7797 9.38868 23.4353 9.10097C23.0908 8.81326 22.6873 8.60481 22.2533 8.49039C21.8194 8.37597 21.3655 8.35838 20.924 8.43885C19.0796 8.77033 17.209 8.9342 15.3351 8.92846C13.4616 8.93486 11.5915 8.77181 9.74739 8.44131C9.01817 8.30925 8.26579 8.44564 7.62932 8.82527C6.99286 9.2049 6.51533 9.80209 6.285 10.5065V10.5077ZM7.71045 21.3734C7.61491 20.8802 7.5671 20.3788 7.5677 19.8764V11.4575C7.5679 11.2842 7.59466 11.1121 7.64705 10.947C7.75385 10.6208 7.96081 10.3366 8.23848 10.1349C8.51614 9.93319 8.85037 9.82418 9.19357 9.8234C9.29223 9.82333 9.39067 9.83237 9.48766 9.8504C11.4174 10.1963 13.3746 10.3669 15.3351 10.36C17.2962 10.3666 19.2539 10.1955 21.1841 9.84876C21.4192 9.8064 21.6607 9.8162 21.8915 9.87746C22.1224 9.93873 22.337 10.05 22.5201 10.2033C22.7032 10.3567 22.8504 10.5484 22.9512 10.7649C23.0521 10.9814 23.1041 11.2174 23.1037 11.4562V19.874C23.1043 20.376 23.0566 20.8769 22.9613 21.3698C22.7408 22.4899 22.2765 23.5479 21.6015 24.4686C20.9264 25.3894 20.0571 26.1504 19.0552 26.6977C17.9106 27.306 16.6342 27.6241 15.3379 27.6241C14.0417 27.6241 12.7653 27.306 11.6207 26.6977C10.6161 26.1539 9.74446 25.3943 9.06836 24.4735C8.39226 23.5527 7.92851 22.4936 7.71045 21.3722V21.3734ZM11.1557 30.7282L12.0743 31.6935C12.0897 31.7099 12.106 31.7255 12.123 31.7402L14.243 33.9555L11.6056 35.8002L9.86642 31.5034L11.1557 30.7282Z" fill="#F08E35"/>
<path d="M36.4313 25.9521V23.0234C37.2741 22.4512 37.9112 21.6237 38.249 20.6627C38.5869 19.7016 38.6076 18.6575 38.3083 17.6837C38.0089 16.71 37.4052 15.8579 36.5858 15.2525C35.7665 14.6472 34.7746 14.3206 33.7558 14.3206C32.7371 14.3206 31.7452 14.6472 30.9258 15.2525C30.1065 15.8579 29.5028 16.71 29.2034 17.6837C28.9041 18.6575 28.9248 19.7016 29.2627 20.6627C29.6005 21.6237 30.2376 22.4512 31.0804 23.0234V29.1838C31.0804 29.3543 31.1413 29.5193 31.2522 29.6488L33.2118 31.9426C33.279 32.0213 33.3625 32.0844 33.4564 32.1277C33.5504 32.171 33.6526 32.1935 33.7561 32.1935C33.8595 32.1935 33.9617 32.171 34.0557 32.1277C34.1496 32.0844 34.2331 32.0213 34.3003 31.9426L36.2599 29.6488C36.3586 29.5332 36.4179 29.3892 36.4293 29.2377C36.4407 29.0861 36.4036 28.9349 36.3233 28.8058L35.5327 27.5354L36.3143 26.3447C36.3907 26.228 36.4314 26.0916 36.4313 25.9521ZM35.3678 21.9984C35.2563 22.0605 35.1633 22.1512 35.0986 22.2612C35.0339 22.3713 34.9997 22.4966 34.9997 22.6242V25.7394L34.0847 27.1329C34.0098 27.2472 33.9691 27.3804 33.9674 27.5171C33.9657 27.6537 34.0032 27.7879 34.0753 27.9039L34.8312 29.1171L33.7558 30.3753L32.512 28.9199V22.6242C32.512 22.4966 32.4778 22.3713 32.4131 22.2612C32.3484 22.1512 32.2554 22.0605 32.1439 21.9984C31.4976 21.641 30.9885 21.0789 30.6965 20.4005C30.4046 19.7222 30.3463 18.966 30.5309 18.2509C30.7155 17.5359 31.1325 16.9024 31.7163 16.4501C32.3002 15.9979 33.0177 15.7525 33.7563 15.7525C34.4948 15.7525 35.2124 15.9979 35.7962 16.4501C36.38 16.9024 36.797 17.5359 36.9816 18.2509C37.1662 18.966 37.1079 19.7222 36.816 20.4005C36.524 21.0789 36.0149 21.641 35.3686 21.9984H35.3678Z" fill="#F08E35"/>
<path d="M34.7351 18.1405C34.7352 17.9473 34.6779 17.7583 34.5706 17.5975C34.4633 17.4368 34.3107 17.3115 34.1321 17.2375C33.9536 17.1634 33.7571 17.144 33.5675 17.1817C33.378 17.2193 33.2038 17.3124 33.0671 17.449C32.9304 17.5857 32.8373 17.7598 32.7996 17.9493C32.7618 18.1389 32.7812 18.3354 32.8551 18.514C32.9291 18.6925 33.0543 18.8452 33.215 18.9526C33.3757 19.06 33.5646 19.1173 33.7579 19.1173C34.017 19.1173 34.2655 19.0144 34.4487 18.8312C34.632 18.6481 34.735 18.3996 34.7351 18.1405Z" fill="#F08E35"/>
</g>
<defs>
<clipPath id="clip0_159_924">
<rect width="40" height="40" fill="white"/>
</clipPath>
</defs>
</svg>
