<svg width="46" height="46" viewBox="0 0 46 46" fill="none" xmlns="http://www.w3.org/2000/svg">
<path d="M42.7441 30.7589L37.7192 18.8726C37.6123 18.6183 37.411 18.4216 37.155 18.3173C37.0293 18.2657 36.8946 18.2396 36.7587 18.2405C36.6228 18.2414 36.4884 18.2694 36.3634 18.3227L35.1488 18.8366V15.1773C35.5261 15.3893 35.9493 15.5007 36.3841 15.5007C36.491 15.5007 36.5997 15.4944 36.7075 15.4801C37.3841 15.3956 37.986 15.0542 38.402 14.5187C38.818 13.9833 39.0013 13.3157 38.9159 12.6392C38.8314 11.9627 38.49 11.3607 37.9546 10.9448L35.1479 8.76245V3.01515C35.1479 2.27214 34.5432 1.66749 33.8002 1.66749H31.4014C30.6584 1.66749 30.0537 2.27214 30.0537 3.01515V4.80124L25.0305 0.89304C24.2642 0.296477 23.2337 0.296477 22.4673 0.89304L9.54148 10.9448C8.43281 11.8073 8.23246 13.4101 9.09406 14.5187C9.51004 15.0542 10.112 15.3956 10.7885 15.4801C11.3357 15.5484 11.8774 15.4423 12.3473 15.1782V18.9534L11.4138 18.3892C11.1775 18.2464 10.8999 18.205 10.6313 18.2706C10.3627 18.3371 10.1362 18.5033 9.9934 18.7396L3.3234 29.7877C3.02871 30.2764 3.18594 30.9134 3.67469 31.2081L5.89562 32.5495C6.06273 32.6501 6.24691 32.6986 6.4284 32.6986C6.77879 32.6986 7.12199 32.5207 7.31605 32.1991L7.78773 31.4175C9.19199 31.7184 10.1596 32.4264 10.4911 32.8594L9.46332 34.0292C8.58016 35.0346 8.67898 36.5709 9.68433 37.4541C10.1443 37.8584 10.7157 38.0569 11.2854 38.0569C11.4417 38.0569 11.5971 38.0416 11.7507 38.012C11.7364 38.7038 12.0149 39.3965 12.5737 39.8879C13.0337 40.2922 13.6051 40.4908 14.1747 40.4908C14.314 40.4908 14.4532 40.4782 14.5898 40.4548C14.5862 40.5402 14.5871 40.6273 14.5925 40.7136C14.6347 41.3623 14.9249 41.9543 15.4101 42.3802C15.8701 42.7845 16.4415 42.983 17.0111 42.983C17.1548 42.983 17.2986 42.9696 17.4405 42.9444C17.4163 43.647 17.6948 44.355 18.2626 44.8545C18.7226 45.2588 19.294 45.4573 19.8636 45.4573C20.4252 45.4573 20.9831 45.2633 21.4314 44.885L21.5446 44.9767C22.0208 45.363 22.5895 45.5535 23.1492 45.5535C23.8221 45.5535 24.4825 45.2794 24.9542 44.7422C25.3047 44.3439 25.5144 43.8412 25.5507 43.3119C25.858 43.4448 26.1859 43.5131 26.513 43.5131C27.1877 43.5131 27.8588 43.2346 28.3377 42.6893C28.693 42.2862 28.9031 41.7756 28.9343 41.2392C29.275 41.3788 29.6432 41.4387 30.0106 41.4144C30.6593 41.3721 31.2513 41.0819 31.6772 40.5968C32.0539 40.1696 32.2669 39.6227 32.2782 39.0533C32.5163 39.1287 32.7634 39.1683 33.0096 39.1683C33.6843 39.1683 34.3554 38.8898 34.8343 38.3444C35.6141 37.4568 35.6276 36.1549 34.9277 35.2547C36.1568 34.6015 36.5539 33.9645 36.8827 33.438C37.172 32.9744 37.4092 32.5944 38.2978 32.2234L38.4478 32.5773C38.5556 32.8316 38.756 33.0284 39.012 33.1326C39.1378 33.1838 39.2699 33.2089 39.402 33.2089C39.5385 33.2089 39.6742 33.182 39.8036 33.1272L42.1934 32.1164C42.4477 32.0086 42.6444 31.8083 42.7486 31.5522C42.8538 31.2944 42.852 31.0132 42.7441 30.7589ZM10.9224 14.41C10.5316 14.3615 10.1848 14.1648 9.94488 13.8566C9.44805 13.2169 9.56305 12.2924 10.2027 11.7956L23.1286 1.74476C23.3136 1.60101 23.5311 1.52823 23.7485 1.52823C23.9659 1.52823 24.1833 1.60011 24.3684 1.74476L30.263 6.32859C30.3427 6.39046 30.4382 6.42874 30.5385 6.43906C30.6389 6.44938 30.7401 6.43133 30.8307 6.38696C30.9213 6.34259 30.9977 6.27369 31.0511 6.18808C31.1045 6.10248 31.1328 6.00361 31.1327 5.90273V3.01515C31.1327 2.86691 31.2531 2.74562 31.4023 2.74562H33.8011C33.9493 2.74562 34.0706 2.86601 34.0706 3.01515V9.0257C34.0706 9.19191 34.147 9.34913 34.2791 9.45156L37.2942 11.7956C37.6024 12.0355 37.7991 12.3823 37.8477 12.7731C37.8962 13.1639 37.792 13.5484 37.5521 13.8566C37.3122 14.1648 36.9654 14.3615 36.5746 14.41C36.1838 14.4585 35.7992 14.3543 35.4911 14.1144L25.0305 5.97999C24.2642 5.38343 23.2337 5.38343 22.4673 5.97999L12.0059 14.1144C11.6986 14.3543 11.3132 14.4594 10.9224 14.41ZM13.4263 14.3768L23.1286 6.83171C23.4996 6.54331 23.9973 6.54331 24.3684 6.83171L34.0706 14.3768V19.2921L33.9736 19.3335C33.448 19.5554 33.2018 20.1636 33.4238 20.6892L33.5648 21.0234C31.8173 21.6658 30.1858 21.4735 28.609 21.1357V17.8466C28.609 17.0425 27.955 16.3884 27.1509 16.3884H20.347C19.5429 16.3884 18.8888 17.0425 18.8888 17.8466V22.0971C18.7073 22.1105 18.5223 22.1276 18.3354 22.1447C17.021 22.2678 15.4083 22.4169 13.8558 21.3693L13.987 21.1519C14.2816 20.6632 14.1244 20.0262 13.6357 19.7315L13.4263 19.6048V14.3768ZM20.701 22.3513C20.4827 22.221 20.2347 22.1465 19.9661 22.1078V17.8457C19.9661 17.6363 20.1368 17.4656 20.3461 17.4656H27.15C27.3593 17.4656 27.53 17.6363 27.53 17.8457V20.8878C25.8077 20.4799 24.1806 20.0989 22.7296 20.8357C22.7126 20.8446 22.6955 20.8545 22.6784 20.8653C21.8968 21.3756 21.2508 21.8868 20.701 22.3513ZM6.41492 31.6034L4.26855 30.307L10.8936 19.3344L13.04 20.6308L6.41492 31.6034ZM10.3959 36.6437C9.83707 36.1522 9.78226 35.2987 10.2728 34.7399L12.2781 32.4578C12.5441 32.1551 12.9178 31.9996 13.2925 31.9996C13.6087 31.9996 13.9268 32.1101 14.1819 32.3348C14.7407 32.8253 14.7955 33.6797 14.305 34.2385L13.4191 35.2466L12.2997 36.5206C11.8091 37.0794 10.9547 37.1342 10.3959 36.6437ZM13.2853 39.0766C12.7264 38.5852 12.6716 37.7317 13.1622 37.1728L14.6725 35.4541L15.1154 34.9501L15.1675 34.8908C15.4038 34.6213 15.7326 34.4605 16.0938 34.4371C16.1243 34.4353 16.154 34.4344 16.1836 34.4344C16.5116 34.4344 16.8242 34.5512 17.0713 34.7677C17.3408 35.004 17.5016 35.3328 17.525 35.694C17.5484 36.0552 17.4307 36.402 17.1944 36.6715L16.5736 37.3786C16.5736 37.3795 16.5727 37.3795 16.5727 37.3795L15.1891 38.9535C14.6976 39.5124 13.8441 39.5672 13.2853 39.0766ZM18.0254 41.4458C17.5349 42.0046 16.6805 42.0594 16.1216 41.5689C15.8521 41.3326 15.6913 41.0038 15.6679 40.6426C15.6446 40.2814 15.7623 39.9346 15.9986 39.6651L16.4523 39.1485L17.383 38.0901C17.649 37.7874 18.0218 37.6328 18.3965 37.6328C18.7127 37.6328 19.0308 37.7434 19.2859 37.968C19.5555 38.2043 19.7163 38.5331 19.7396 38.8943C19.763 39.2554 19.6453 39.6022 19.409 39.8718L18.0614 41.4054L18.0416 41.4278L18.0254 41.4458ZM18.9742 44.0432C18.4154 43.5527 18.3605 42.6982 18.8511 42.1403L19.0649 41.8968C19.3309 41.5941 19.7037 41.4395 20.0793 41.4395C20.3955 41.4395 20.7136 41.55 20.9687 41.7746C21.2382 42.0109 21.3991 42.3398 21.4224 42.7009C21.4458 43.0621 21.3281 43.4089 21.0918 43.6784L20.8789 43.921C20.3865 44.4789 19.533 44.5337 18.9742 44.0432ZM34.0248 37.6311C33.5334 38.1899 32.6798 38.2447 32.121 37.7541L31.4571 37.1711L31.4562 37.1702L26.8274 33.1029C26.6037 32.9062 26.2632 32.9286 26.0664 33.1523C25.8697 33.376 25.8921 33.7166 26.1159 33.9133L30.7455 37.9814C31.015 38.2177 31.1759 38.5466 31.1992 38.9077C31.2226 39.2689 31.1049 39.6157 30.8686 39.8852C30.6323 40.1548 30.3035 40.3156 29.9423 40.3389C29.5811 40.3623 29.2343 40.2446 28.9648 40.0083L28.1185 39.2644L28.1176 39.2635L24.1887 35.8108C23.965 35.6141 23.6245 35.6365 23.4277 35.8602C23.231 36.0839 23.2534 36.4244 23.4771 36.6212L27.406 40.0739L27.4069 40.0748C27.6764 40.3111 27.8373 40.6399 27.8606 41.0011C27.884 41.3623 27.7663 41.7091 27.53 41.9786C27.0386 42.5374 26.185 42.5922 25.6262 42.1017L24.735 41.3182L23.1321 39.9095C22.9084 39.7127 22.5679 39.7352 22.3712 39.9589C22.1744 40.1826 22.1969 40.5231 22.4206 40.7199L24.0234 42.1286C24.5822 42.6201 24.637 43.4736 24.1465 44.0324C23.6667 44.5787 22.8231 44.6263 22.2265 44.142L22.1412 44.0728C22.7575 43.0837 22.5859 41.7621 21.683 40.9678C21.3181 40.6465 20.8646 40.443 20.382 40.3839C20.7001 39.9328 20.8546 39.3902 20.8187 38.8296C20.7764 38.1809 20.4862 37.5888 20.0011 37.163C19.5807 36.7925 19.0445 36.58 18.4845 36.5619C18.7873 35.6617 18.5438 34.6276 17.7873 33.9627C17.3022 33.536 16.6778 33.3239 16.0291 33.3662C15.9249 33.3725 15.8225 33.3868 15.7218 33.4057C15.7362 32.7139 15.4577 32.0203 14.8989 31.5298C14.4137 31.103 13.7893 30.8919 13.1406 30.9332C12.492 30.9754 11.8999 31.2656 11.474 31.7508L11.2108 32.0509C10.6439 31.4166 9.61965 30.7894 8.37711 30.4552L13.297 22.2929C15.1477 23.5229 17.03 23.3486 18.4342 23.2174C18.9993 23.1644 19.4423 23.1294 19.7621 23.1644C19.4935 23.3989 19.25 23.6064 19.0164 23.7834C17.0111 25.3054 17.2609 26.9603 17.481 28.4203C17.6445 29.5011 17.7981 30.5226 17.1234 31.5729C17.0336 31.7121 17.0129 31.8855 17.0677 32.0428C17.0948 32.1201 17.1391 32.1902 17.1973 32.2478C17.2556 32.3054 17.3261 32.3489 17.4037 32.3752C18.4127 32.7157 19.56 32.474 20.55 31.7112C21.6767 30.8442 22.3523 29.5155 22.2723 28.325C22.2382 27.821 22.5122 27.0762 22.9596 26.8112C23.0549 26.7546 23.3397 26.5866 23.8734 26.9154L33.9008 35.7273C34.4605 36.2187 34.5154 37.0722 34.0248 37.6311ZM35.9681 32.8648C35.6411 33.3895 35.3302 33.8864 34.0967 34.4632L24.5535 26.0771C24.5328 26.0592 24.5113 26.043 24.4888 26.0286C23.5203 25.4069 22.7719 25.671 22.4116 25.8831C21.5473 26.3943 21.1403 27.5596 21.1969 28.3969C21.2526 29.2244 20.7288 30.2127 19.8924 30.8559C19.4108 31.2261 18.8915 31.4282 18.3992 31.4453C18.8565 30.3115 18.6939 29.2316 18.5465 28.2585C18.3372 26.8723 18.1719 25.7771 19.6678 24.6414C19.9966 24.3917 20.3398 24.0907 20.7028 23.7726C21.3928 23.168 22.1735 22.4834 23.2427 21.7826C24.3441 21.2391 25.717 21.5643 27.3045 21.9407C29.2891 22.4115 31.5218 22.9398 33.9844 22.0162L37.8782 31.227C36.6743 31.7337 36.3158 32.3078 35.9681 32.8648ZM39.4244 32.1146L34.4336 20.3083L36.7435 19.3317L41.7343 31.138L39.4244 32.1146Z" fill="#F08E35"/>
</svg>
