<svg width="40" height="40" viewBox="0 0 40 40" fill="none" xmlns="http://www.w3.org/2000/svg">
<g clip-path="url(#clip0_159_935)">
<path d="M18.7565 25.5737C19.0756 25.5745 19.3917 25.5119 19.6864 25.3897C19.9812 25.2675 20.2488 25.0879 20.4737 24.8616L26.763 18.5727C27.2184 18.1173 27.4742 17.4997 27.4742 16.8557C27.4742 16.2117 27.2184 15.5941 26.763 15.1387C26.3077 14.6833 25.69 14.4275 25.046 14.4275C24.402 14.4275 23.7844 14.6833 23.329 15.1387L18.7565 19.7117L16.798 17.7532C16.3426 17.2979 15.725 17.042 15.081 17.042C14.437 17.042 13.8194 17.2979 13.364 17.7532C12.9087 18.2086 12.6528 18.8262 12.6528 19.4702C12.6528 20.1142 12.9087 20.7318 13.364 21.1872L17.041 24.8638C17.2659 25.0896 17.5332 25.2687 17.8277 25.3905C18.1221 25.5124 18.4378 25.5746 18.7565 25.5737ZM14.4639 18.8526C14.5447 18.7718 14.6406 18.7076 14.7462 18.6638C14.8518 18.6201 14.9649 18.5975 15.0792 18.5975C15.1935 18.5975 15.3067 18.6201 15.4123 18.6638C15.5179 18.7076 15.6138 18.7718 15.6946 18.8526L18.2059 21.363C18.2782 21.4354 18.364 21.4929 18.4586 21.532C18.5531 21.5712 18.6544 21.5914 18.7567 21.5914C18.859 21.5914 18.9603 21.5712 19.0548 21.532C19.1494 21.4929 19.2352 21.4354 19.3075 21.363L24.4285 16.2408C24.5089 16.1583 24.605 16.0927 24.711 16.0476C24.8171 16.0026 24.931 15.979 25.0462 15.9783C25.1614 15.9776 25.2756 15.9998 25.3822 16.0436C25.4888 16.0873 25.5856 16.1518 25.6671 16.2333C25.7486 16.3148 25.8131 16.4116 25.8568 16.5182C25.9006 16.6248 25.9228 16.739 25.9221 16.8542C25.9214 16.9694 25.8978 17.0833 25.8528 17.1894C25.8077 17.2954 25.7421 17.3915 25.6596 17.4719L19.3721 23.7613C19.2064 23.9199 18.9859 24.0084 18.7565 24.0084C18.5271 24.0084 18.3066 23.9199 18.1409 23.7613L14.4643 20.0843C14.3013 19.921 14.2096 19.6997 14.2096 19.469C14.2095 19.2382 14.3009 19.0169 14.4639 18.8535V18.8526Z" fill="#F08E35"/>
<path d="M20.0629 34.1687C23.1336 34.166 26.1206 33.1672 28.5752 31.3223C31.0299 29.4773 32.8198 26.8858 33.6762 23.9369C34.5325 20.988 34.4091 17.8409 33.3244 14.9682C32.2397 12.0954 30.2523 9.65207 27.6606 8.00507C25.069 6.35807 22.0129 5.59629 18.9514 5.83414C15.8899 6.07199 12.9882 7.29663 10.6821 9.32414C8.37587 11.3517 6.78969 14.0726 6.16171 17.0784C5.53372 20.0843 5.89782 23.2127 7.19934 25.9939C8.34636 28.4371 10.1651 30.5032 12.4431 31.9508C14.721 33.3984 17.3639 34.1677 20.0629 34.1687ZM7.42011 19.9699C7.42316 16.8594 8.57386 13.8595 10.6517 11.5449C12.7296 9.23028 15.5885 7.76381 18.6806 7.42647C21.7727 7.08912 24.8805 7.90463 27.4086 9.71673C29.9367 11.5288 31.7072 14.2101 32.3809 17.2467C33.0546 20.2833 32.5841 23.4617 31.0595 26.1729C29.5349 28.8841 27.0635 30.9374 24.1189 31.9394C21.1742 32.9413 17.9634 32.8214 15.1016 31.6027C12.2399 30.3839 9.92847 28.1521 8.61032 25.3347C7.82549 23.6552 7.41918 21.8238 7.42011 19.9699Z" fill="#F08E35"/>
<path d="M2.1407 28.2835C2.24708 29.6634 2.35658 31.0926 3.1867 32.2338C4.02572 33.3853 5.3557 33.931 6.64205 34.4594C7.38453 34.7271 8.09366 35.0796 8.75541 35.5098C9.35909 36.0008 9.90422 36.5597 10.38 37.1754C11.2818 38.2437 12.2152 39.3506 13.5906 39.7971C14.0294 39.9359 14.4875 40.0043 14.9477 39.9996C15.8527 39.961 16.7499 39.816 17.621 39.5678C18.4033 39.3426 19.2089 39.2081 20.0219 39.1672C20.8351 39.2082 21.6408 39.3426 22.4232 39.5678C23.7586 39.891 25.1348 40.2257 26.4537 39.7971C27.8286 39.352 28.7615 38.245 29.6633 37.1758C30.1391 36.5597 30.6846 36.0006 31.2889 35.5098C31.9503 35.0794 32.6593 34.7269 33.4018 34.4594C34.6881 33.9319 36.0185 33.3862 36.8567 32.2338C37.6872 31.0926 37.7972 29.6643 37.9031 28.2835C37.9301 27.4863 38.0484 26.6948 38.2556 25.9245C38.5311 25.2122 38.8879 24.5341 39.319 23.9037C40.0623 22.7086 40.8323 21.473 40.8323 19.9992C40.8323 18.5255 40.0641 17.2903 39.319 16.0957C38.8882 15.4653 38.5314 14.7874 38.2556 14.0753C38.0485 13.305 37.9302 12.5135 37.9031 11.7163C37.7972 10.3365 37.6877 8.90678 36.8571 7.76598C36.0185 6.61405 34.6881 6.06835 33.4022 5.54045C32.6596 5.27272 31.9505 4.92009 31.2889 4.48956C30.6848 3.99881 30.1395 3.43991 29.6638 2.82398C28.762 1.75573 27.8286 0.648751 26.4532 0.202311C25.1357 -0.2241 23.7568 0.108839 22.4232 0.43154C21.6408 0.656771 20.8351 0.791187 20.0219 0.832134C19.2089 0.791184 18.4033 0.656768 17.621 0.43154C16.2857 0.108839 14.909 -0.225435 13.5901 0.202756C12.2152 0.647861 11.2823 1.75439 10.3805 2.82353C9.90488 3.4397 9.35956 3.99877 8.75541 4.48956C8.09389 4.92 7.3849 5.27263 6.6425 5.54045C5.3557 6.06746 4.02572 6.61316 3.18715 7.76598C2.35703 8.90678 2.24708 10.3351 2.1407 11.7163C2.11366 12.5135 1.99538 13.305 1.78818 14.0753C1.51271 14.7875 1.15605 15.4656 0.725271 16.0961C-0.0180545 17.2908 -0.788086 18.5268 -0.788086 19.9997C-0.788086 21.4725 -0.0193898 22.709 0.725271 23.9041C1.15612 24.5345 1.51279 25.2124 1.78818 25.9245C1.99535 26.6948 2.11363 27.4863 2.1407 28.2835ZM2.04768 16.9196C2.54787 16.1838 2.95807 15.3908 3.26949 14.5574C3.51727 13.6707 3.65995 12.7579 3.69457 11.8378C3.78804 10.6195 3.87617 9.46895 4.44679 8.68468C5.02543 7.88972 6.09769 7.4504 7.23315 6.98482C8.0922 6.67248 8.9109 6.25872 9.67188 5.75232C10.3793 5.18979 11.017 4.54488 11.5716 3.83125C12.3674 2.88763 13.1192 1.99653 14.0713 1.68763C14.3557 1.59943 14.6522 1.55677 14.9499 1.56122C15.7302 1.60289 16.5033 1.73295 17.2542 1.9489C18.1561 2.20504 19.0851 2.3537 20.0219 2.39178C20.9587 2.35374 21.8877 2.20508 22.7896 1.9489C23.9642 1.66448 25.0734 1.39653 25.9725 1.68718C26.925 1.99875 27.6768 2.88896 28.4731 3.8317C29.0276 4.54495 29.6651 5.18969 30.3719 5.75232C31.1332 6.25855 31.952 6.67229 32.8111 6.98482C33.9461 7.4504 35.0193 7.88972 35.5975 8.68468C36.1681 9.4685 36.2562 10.6195 36.3497 11.8374C36.3839 12.7577 36.5265 13.6708 36.7743 14.5578C37.0858 15.391 37.496 16.1839 37.9961 16.9196C38.6527 17.9749 39.2727 18.9724 39.2727 20.0006C39.2727 21.0288 38.6527 22.0267 37.9961 23.0825C37.4958 23.8181 37.0856 24.6112 36.7743 25.4447C36.5265 26.3312 36.3839 27.2439 36.3497 28.1638C36.2562 29.3821 36.1681 30.5327 35.597 31.3169C35.0184 32.1119 33.9461 32.5512 32.8111 33.0168C31.9521 33.3295 31.1333 33.7432 30.3719 34.2493C29.6647 34.8118 29.0271 35.4567 28.4727 36.1704C27.6764 37.114 26.9246 38.0051 25.9725 38.3149C25.0734 38.6055 23.9642 38.3371 22.7896 38.0531C21.8877 37.797 20.9587 37.6483 20.0219 37.6103C19.0851 37.6484 18.1561 37.797 17.2542 38.0531C16.0796 38.3371 14.9704 38.6042 14.0713 38.3149C13.1188 38.0033 12.367 37.1131 11.5707 36.1699C11.0161 35.4568 10.3787 34.812 9.67188 34.2493C8.9106 33.7434 8.09196 33.3297 7.23315 33.0168C6.09769 32.5512 5.02499 32.1119 4.44635 31.3169C3.87617 30.5331 3.78804 29.3821 3.69457 28.1643C3.65994 27.244 3.51727 26.3311 3.26949 25.4442C2.95816 24.6109 2.54796 23.818 2.04768 23.0825C1.39159 22.0267 0.771117 21.0297 0.771117 20.0006C0.771117 18.9715 1.39159 17.9749 2.04768 16.9196Z" fill="#F08E35"/>
</g>
<defs>
<clipPath id="clip0_159_935">
<rect width="40" height="40" fill="white"/>
</clipPath>
</defs>
</svg>
